<?xml version="1.0" encoding="UTF-8" standalone="no"?>
<!-- Created with Inkscape (http://www.inkscape.org/) -->

<svg
   width="225.77777mm"
   height="169.33333mm"
   viewBox="0 0 799.99998 599.99998"
   id="svg3754"
   version="1.1"
   inkscape:version="1.1 (c68e22c387, 2021-05-23)"
   sodipodi:docname="fourism_correct_flat.svg"
   xmlns:inkscape="http://www.inkscape.org/namespaces/inkscape"
   xmlns:sodipodi="http://sodipodi.sourceforge.net/DTD/sodipodi-0.dtd"
   xmlns:xlink="http://www.w3.org/1999/xlink"
   xmlns="http://www.w3.org/2000/svg"
   xmlns:svg="http://www.w3.org/2000/svg"
   xmlns:rdf="http://www.w3.org/1999/02/22-rdf-syntax-ns#"
   xmlns:cc="http://creativecommons.org/ns#"
   xmlns:dc="http://purl.org/dc/elements/1.1/">
  <defs
     id="defs3756">
    <rect
       x="107.29324"
       y="232.61921"
       width="204.90638"
       height="62.505388"
       id="rect24103" />
    <pattern
       patternTransform="matrix(1.7148086,0.03566181,-0.03073366,1.4778373,-298.22424,7.4154944)"
       id="pattern6071"
       xlink:href="#pattern17313"
       inkscape:collect="always" />
    <pattern
       id="pattern17313"
       patternTransform="translate(318.61426,541.09566)"
       height="64.5"
       width="64.53125"
       patternUnits="userSpaceOnUse">
      <g
         transform="translate(-344.61426,-329.09566)"
         id="g17251"
         style="stroke:#ffffff">
        <path
           inkscape:connector-curvature="0"
           style="fill:none;stroke:#ffffff;stroke-width:1px;stroke-linecap:butt;stroke-linejoin:miter;stroke-opacity:1"
           d="m -236.625,187.46875 1.59375,1.59375"
           id="path17253"
           transform="translate(581.58301,204.18941)" />
        <path
           inkscape:connector-curvature="0"
           style="fill:none;stroke:#ffffff;stroke-width:1px;stroke-linecap:butt;stroke-linejoin:miter;stroke-opacity:1"
           d="m -236.625,183.15625 5.90625,5.90625"
           id="path17255"
           transform="translate(581.58301,204.18941)" />
        <path
           inkscape:connector-curvature="0"
           style="fill:none;stroke:#ffffff;stroke-width:1px;stroke-linecap:butt;stroke-linejoin:miter;stroke-opacity:1"
           d="m -236.625,178.84375 10.21875,10.21875"
           id="path17257"
           transform="translate(581.58301,204.18941)" />
        <path
           inkscape:connector-curvature="0"
           style="fill:none;stroke:#ffffff;stroke-width:1px;stroke-linecap:butt;stroke-linejoin:miter;stroke-opacity:1"
           d="m -236.625,174.53125 14.53125,14.53125"
           id="path17259"
           transform="translate(581.58301,204.18941)" />
        <path
           inkscape:connector-curvature="0"
           style="fill:none;stroke:#ffffff;stroke-width:1px;stroke-linecap:butt;stroke-linejoin:miter;stroke-opacity:1"
           d="m -236.625,170.21875 18.84375,18.84375"
           id="path17261"
           transform="translate(581.58301,204.18941)" />
        <path
           inkscape:connector-curvature="0"
           style="fill:none;stroke:#ffffff;stroke-width:1px;stroke-linecap:butt;stroke-linejoin:miter;stroke-opacity:1"
           d="m -236.625,165.90625 23.15625,23.15625"
           id="path17263"
           transform="translate(581.58301,204.18941)" />
        <path
           inkscape:connector-curvature="0"
           style="fill:none;stroke:#ffffff;stroke-width:1px;stroke-linecap:butt;stroke-linejoin:miter;stroke-opacity:1"
           d="m -236.625,161.59375 27.46875,27.46875"
           id="path17265"
           transform="translate(581.58301,204.18941)" />
        <path
           inkscape:connector-curvature="0"
           style="fill:none;stroke:#ffffff;stroke-width:1px;stroke-linecap:butt;stroke-linejoin:miter;stroke-opacity:1"
           d="m -236.625,157.28125 31.78125,31.78125"
           id="path17267"
           transform="translate(581.58301,204.18941)" />
        <path
           inkscape:connector-curvature="0"
           style="fill:none;stroke:#ffffff;stroke-width:1px;stroke-linecap:butt;stroke-linejoin:miter;stroke-opacity:1"
           d="m -236.625,152.96875 36.09375,36.09375"
           id="path17269"
           transform="translate(581.58301,204.18941)" />
        <path
           inkscape:connector-curvature="0"
           style="fill:none;stroke:#ffffff;stroke-width:1px;stroke-linecap:butt;stroke-linejoin:miter;stroke-opacity:1"
           d="m -236.625,148.65625 40.40625,40.40625"
           id="path17271"
           transform="translate(581.58301,204.18941)" />
        <path
           inkscape:connector-curvature="0"
           style="fill:none;stroke:#ffffff;stroke-width:1px;stroke-linecap:butt;stroke-linejoin:miter;stroke-opacity:1"
           d="m -236.625,144.34375 44.71875,44.71875"
           id="path17273"
           transform="translate(581.58301,204.18941)" />
        <path
           inkscape:connector-curvature="0"
           style="fill:none;stroke:#ffffff;stroke-width:1px;stroke-linecap:butt;stroke-linejoin:miter;stroke-opacity:1"
           d="m -236.625,140.03125 49.03125,49.03125"
           id="path17275"
           transform="translate(581.58301,204.18941)" />
        <path
           inkscape:connector-curvature="0"
           style="fill:none;stroke:#ffffff;stroke-width:1px;stroke-linecap:butt;stroke-linejoin:miter;stroke-opacity:1"
           d="m -236.625,135.71875 53.34375,53.34375"
           id="path17277"
           transform="translate(581.58301,204.18941)" />
        <path
           inkscape:connector-curvature="0"
           style="fill:none;stroke:#ffffff;stroke-width:1px;stroke-linecap:butt;stroke-linejoin:miter;stroke-opacity:1"
           d="m -236.625,131.40625 57.65625,57.65625"
           id="path17279"
           transform="translate(581.58301,204.18941)" />
        <path
           inkscape:connector-curvature="0"
           style="fill:none;stroke:#ffffff;stroke-width:1px;stroke-linecap:butt;stroke-linejoin:miter;stroke-opacity:1"
           d="m -236.625,127.09375 61.96875,61.96875"
           id="path17281"
           transform="translate(581.58301,204.18941)" />
        <path
           inkscape:connector-curvature="0"
           style="fill:none;stroke:#ffffff;stroke-width:1px;stroke-linecap:butt;stroke-linejoin:miter;stroke-opacity:1"
           d="m -234.15625,125.25 61.375,61.375"
           id="path17283"
           transform="translate(581.58301,204.18941)" />
        <path
           inkscape:connector-curvature="0"
           style="fill:none;stroke:#ffffff;stroke-width:1px;stroke-linecap:butt;stroke-linejoin:miter;stroke-opacity:1"
           d="m -229.84375,125.25 57.0625,57.0625"
           id="path17285"
           transform="translate(581.58301,204.18941)" />
        <path
           inkscape:connector-curvature="0"
           style="fill:none;stroke:#ffffff;stroke-width:1px;stroke-linecap:butt;stroke-linejoin:miter;stroke-opacity:1"
           d="m -225.53125,125.25 52.75,52.75"
           id="path17287"
           transform="translate(581.58301,204.18941)" />
        <path
           inkscape:connector-curvature="0"
           style="fill:none;stroke:#ffffff;stroke-width:1px;stroke-linecap:butt;stroke-linejoin:miter;stroke-opacity:1"
           d="m -221.21875,125.25 48.4375,48.4375"
           id="path17289"
           transform="translate(581.58301,204.18941)" />
        <path
           inkscape:connector-curvature="0"
           style="fill:none;stroke:#ffffff;stroke-width:1px;stroke-linecap:butt;stroke-linejoin:miter;stroke-opacity:1"
           d="m -216.90625,125.25 44.125,44.125"
           id="path17291"
           transform="translate(581.58301,204.18941)" />
        <path
           inkscape:connector-curvature="0"
           style="fill:none;stroke:#ffffff;stroke-width:1px;stroke-linecap:butt;stroke-linejoin:miter;stroke-opacity:1"
           d="m -212.59375,125.25 39.8125,39.8125"
           id="path17293"
           transform="translate(581.58301,204.18941)" />
        <path
           inkscape:connector-curvature="0"
           style="fill:none;stroke:#ffffff;stroke-width:1px;stroke-linecap:butt;stroke-linejoin:miter;stroke-opacity:1"
           d="m -208.28125,125.25 35.5,35.5"
           id="path17295"
           transform="translate(581.58301,204.18941)" />
        <path
           inkscape:connector-curvature="0"
           style="fill:none;stroke:#ffffff;stroke-width:1px;stroke-linecap:butt;stroke-linejoin:miter;stroke-opacity:1"
           d="m -203.9375,125.25 31.15625,31.15625"
           id="path17297"
           transform="translate(581.58301,204.18941)" />
        <path
           inkscape:connector-curvature="0"
           style="fill:none;stroke:#ffffff;stroke-width:1px;stroke-linecap:butt;stroke-linejoin:miter;stroke-opacity:1"
           d="m -199.625,125.25 26.84375,26.84375"
           id="path17299"
           transform="translate(581.58301,204.18941)" />
        <path
           inkscape:connector-curvature="0"
           style="fill:none;stroke:#ffffff;stroke-width:1px;stroke-linecap:butt;stroke-linejoin:miter;stroke-opacity:1"
           d="m -195.3125,125.25 22.53125,22.53125"
           id="path17301"
           transform="translate(581.58301,204.18941)" />
        <path
           inkscape:connector-curvature="0"
           style="fill:none;stroke:#ffffff;stroke-width:1px;stroke-linecap:butt;stroke-linejoin:miter;stroke-opacity:1"
           d="m -191,125.25 18.21875,18.21875"
           id="path17303"
           transform="translate(581.58301,204.18941)" />
        <path
           inkscape:connector-curvature="0"
           style="fill:none;stroke:#ffffff;stroke-width:1px;stroke-linecap:butt;stroke-linejoin:miter;stroke-opacity:1"
           d="m -186.6875,125.25 13.90625,13.90625"
           id="path17305"
           transform="translate(581.58301,204.18941)" />
        <path
           inkscape:connector-curvature="0"
           style="fill:none;stroke:#ffffff;stroke-width:1px;stroke-linecap:butt;stroke-linejoin:miter;stroke-opacity:1"
           d="m -182.375,125.25 9.59375,9.59375"
           id="path17307"
           transform="translate(581.58301,204.18941)" />
        <path
           inkscape:connector-curvature="0"
           style="fill:none;stroke:#ffffff;stroke-width:1px;stroke-linecap:butt;stroke-linejoin:miter;stroke-opacity:1"
           d="m -178.0625,125.25 5.28125,5.28125"
           id="path17309"
           transform="translate(581.58301,204.18941)" />
        <path
           inkscape:connector-curvature="0"
           style="fill:none;stroke:#ffffff;stroke-width:1px;stroke-linecap:butt;stroke-linejoin:miter;stroke-opacity:1"
           d="m -173.75,125.25 0.96875,0.96875"
           id="path17311"
           transform="translate(581.58301,204.18941)" />
      </g>
    </pattern>
    <rect
       x="107.29324"
       y="232.61921"
       width="237.7162"
       height="57.767271"
       id="rect29229" />
    <rect
       x="107.29324"
       y="232.61921"
       width="246.22912"
       height="33.113551"
       id="rect33219" />
    <rect
       x="107.29324"
       y="232.61921"
       width="283.90086"
       height="31.561827"
       id="rect36131" />
  </defs>
  <sodipodi:namedview
     id="base"
     pagecolor="#ffffff"
     bordercolor="#666666"
     borderopacity="1.0"
     inkscape:pageopacity="0.0"
     inkscape:pageshadow="2"
     inkscape:zoom="0.96666667"
     inkscape:cx="15"
     inkscape:cy="392.06896"
     inkscape:document-units="px"
     inkscape:current-layer="g38451"
     showgrid="false"
     fit-margin-top="0"
     fit-margin-left="0"
     fit-margin-right="0"
     fit-margin-bottom="0"
     inkscape:window-width="2560"
     inkscape:window-height="1371"
     inkscape:window-x="0"
     inkscape:window-y="0"
     inkscape:window-maximized="1"
     inkscape:pagecheckerboard="0" />
  <metadata
     id="metadata3759">
    <rdf:RDF>
      <cc:Work
         rdf:about="">
        <dc:format>image/svg+xml</dc:format>
        <dc:type
           rdf:resource="http://purl.org/dc/dcmitype/StillImage" />
      </cc:Work>
    </rdf:RDF>
  </metadata>
  <g
     inkscape:label="Layer 1"
     inkscape:groupmode="layer"
     id="layer1"
     transform="translate(534.28571,64.780651)">
    <g
       id="text5316"
       style="font-style:normal;font-weight:normal;font-size:40px;line-height:125%;font-family:sans-serif;letter-spacing:0px;word-spacing:0px;fill:#000000;fill-opacity:1;stroke:none;stroke-width:1px;stroke-linecap:butt;stroke-linejoin:miter;stroke-opacity:1" />
    <g
       id="g38451"
       inkscape:export-filename="/home/lruzicka/Dokumenty/redhat/talks/rha_talks/RHA_zapojeni_opensource/images/fs_rights.png"
       inkscape:export-xdpi="300"
       inkscape:export-ydpi="300">
      <g
         id="g40455"
         inkscape:export-filename="/home/lruzicka/Dokumenty/redhat/talks/rha_talks/RHA_zapojeni_opensource/images/fs_rights.png"
         inkscape:export-xdpi="300"
         inkscape:export-ydpi="300">
        <path
           id="rect3452"
           d="m -534.28571,-64.780647 h 800 V 535.21935 h -800 z"
           style="fill:#fdf6e3;fill-opacity:1;stroke:none;stroke-width:100;stroke-miterlimit:4;stroke-dasharray:none;stroke-opacity:1" />
        <path
           id="rect6528"
           d="m -517.73407,234.21935 h 766.55176 v 2 h -766.55176 z"
           style="fill:#f2ebc8;fill-opacity:1;stroke:none;stroke-width:0;stroke-miterlimit:4;stroke-dasharray:none;stroke-opacity:1" />
        <g
           id="text3458"
           style="font-style:normal;font-weight:normal;font-size:35.0168px;line-height:125%;font-family:sans-serif;letter-spacing:0px;word-spacing:0px;fill:#02091c;fill-opacity:1;stroke:none;stroke-width:1px;stroke-linecap:butt;stroke-linejoin:miter;stroke-opacity:1">
          <path
             id="path4593"
             style="font-style:normal;font-variant:normal;font-weight:normal;font-stretch:normal;font-size:22.7933px;font-family:'Linux Libertine';-inkscape-font-specification:'Linux Libertine';fill:#02091c;fill-opacity:1"
             d="m -85.247123,275.84749 c 3.008711,0 5.44759,2.50726 5.44759,7.1115 0,4.07999 -1.960221,6.47329 -4.558653,6.47329 -2.780779,0 -5.402004,-2.48447 -5.402004,-6.86078 0,-4.78658 2.256533,-6.72401 4.513067,-6.72401 z m 7.635744,6.67843 c 0,-4.71821 -3.259437,-7.49899 -7.339432,-7.49899 -4.421894,0 -6.997533,3.53296 -6.997533,7.93206 0,4.49027 3.259437,7.29385 7.134293,7.29385 2.507259,0 4.53586,-1.07129 5.789489,-2.87196 0.911731,-1.27642 1.413183,-2.94033 1.413183,-4.85496 z" />
          <path
             id="path4595"
             style="font-style:normal;font-variant:normal;font-weight:normal;font-stretch:normal;font-size:22.7933px;font-family:'Linux Libertine';-inkscape-font-specification:'Linux Libertine';fill:#02091c;fill-opacity:1"
             d="m -70.359203,282.66268 c 1.937428,0 2.005808,0.52424 2.074187,1.54994 0.13676,0.13676 0.615419,0.13676 0.752178,0 -0.02279,-0.56983 -0.04559,-1.20804 -0.04559,-2.00581 0,-0.75218 0.02279,-1.36759 0.04559,-1.96022 -0.136759,-0.13676 -0.615418,-0.13676 -0.752178,0 -0.06838,1.25363 -0.136759,1.54994 -2.074187,1.54994 h -2.119774 v -4.10278 c 0,-1.23084 0.27352,-1.45877 1.276423,-1.45877 h 1.025697 c 2.416087,0 2.985918,0.91173 3.48737,2.48446 0.273519,0 0.524245,-0.0456 0.706591,-0.11396 -0.136759,-0.93453 -0.478658,-3.12268 -0.501452,-3.30503 -0.02279,-0.0456 -0.04559,-0.0684 -0.09117,-0.0684 -0.410278,0.0912 -0.501451,0.0912 -1.071283,0.0912 h -5.812283 c -0.729385,0 -2.028601,-0.0228 -2.940331,-0.0456 -0.13676,0.13676 -0.13676,0.61542 0,0.75218 1.595528,0.0684 1.983014,0.18234 1.983014,2.07418 v 9.1401 c 0,1.89184 -0.387486,2.00581 -1.983014,2.07419 -0.13676,0.13676 -0.13676,0.61542 0,0.75218 0.797764,-0.0228 1.937427,-0.0456 2.963124,-0.0456 1.025697,0 2.142567,0.0228 2.940332,0.0456 0.136759,-0.13676 0.136759,-0.61542 0,-0.75218 -1.595529,-0.0684 -1.983015,-0.18235 -1.983015,-2.07419 v -4.58144 h 2.119774 z" />
          <path
             id="path4597"
             style="font-style:normal;font-variant:normal;font-weight:normal;font-stretch:normal;font-size:22.7933px;font-family:'Linux Libertine';-inkscape-font-specification:'Linux Libertine';fill:#02091c;fill-opacity:1"
             d="m -51.477831,275.02693 c -3.806475,0 -7.74971,2.98592 -7.74971,8.00044 0,4.10279 2.826365,7.22547 7.179878,7.22547 2.689606,0 4.80938,-0.56984 6.359322,-1.89185 -0.250726,-0.20514 -0.364693,-0.38748 -0.364693,-0.63821 v -2.64402 c 0,-0.79776 0.387486,-1.02569 1.048491,-1.09407 0.136759,-0.13676 0.136759,-0.6838 0,-0.82056 -0.547039,0.0228 -1.11687,0.0456 -2.028601,0.0456 -0.774971,0 -1.823461,-0.0228 -2.826365,-0.0456 -0.13676,0.13676 -0.13676,0.6838 0,0.82056 1.230836,0.11396 1.869048,0.18234 1.869048,1.09407 v 3.48737 c -0.774971,0.72939 -2.30212,0.86615 -3.532956,0.86615 -3.601337,0 -5.515971,-3.85206 -5.515971,-6.86078 0,-3.98882 2.575639,-6.72401 5.242451,-6.72401 3.305024,0 4.239548,1.89184 4.832173,3.85206 0.250726,0.0228 0.478658,-0.0228 0.752178,-0.13676 -0.06838,-0.95731 -0.159553,-1.86904 -0.524246,-3.51016 -1.367596,-0.22793 -2.210946,-1.0257 -4.740999,-1.0257 z" />
          <path
             id="path4599"
             style="font-style:normal;font-variant:normal;font-weight:normal;font-stretch:normal;font-size:22.7933px;font-family:'Linux Libertine';-inkscape-font-specification:'Linux Libertine';fill:#02091c;fill-opacity:1"
             d="m -40.137111,277.39743 c 0,-0.661 0.341899,-1.45877 1.983015,-1.45877 1.572735,0 3.14547,0.52425 3.14547,3.41899 0,2.46168 -1.185249,3.46458 -3.396196,3.46458 -0.569832,0 -1.481563,-0.0456 -1.732289,-0.11397 z m -1.937427,0.70659 v 9.1401 c 0,1.89184 -0.387486,2.00581 -1.983014,2.07419 -0.13676,0.13676 -0.13676,0.61542 0,0.75218 1.025697,-0.0228 2.142567,-0.0456 2.963124,-0.0456 0.797765,0 2.142567,0.0228 3.282231,0.0456 0.136759,-0.13676 0.136759,-0.61542 0,-0.75218 -1.777875,-0.0912 -2.324914,-0.18235 -2.324914,-2.07419 v -3.87485 c 0.501452,0.15955 1.048491,0.22793 1.846255,0.22793 4.148375,0 5.402004,-2.7124 5.402004,-4.64983 0,-1.3448 -0.888937,-3.78368 -5.105691,-3.78368 -0.888938,0 -2.210947,0.15956 -3.122678,0.15956 -0.843351,0 -2.028601,-0.0228 -2.940331,-0.0456 -0.13676,0.13676 -0.13676,0.61542 0,0.75218 1.595528,0.0684 1.983014,0.18234 1.983014,2.07418 z" />
          <path
             id="path4601"
             style="font-style:normal;font-variant:normal;font-weight:normal;font-stretch:normal;font-size:22.7933px;font-family:'Linux Libertine';-inkscape-font-specification:'Linux Libertine';fill:#02091c;fill-opacity:1"
             d="m -28.717329,290.0249 h 4.832173 c 0.638211,0 2.735192,0.0456 2.735192,0.0456 0.227932,-1.13966 0.455865,-2.62123 0.592625,-3.80648 -0.227933,-0.0912 -0.478659,-0.13676 -0.752178,-0.11396 -0.455865,1.64111 -1.299216,2.98591 -3.715303,2.98591 h -1.435975 c -0.888938,0 -1.299217,-0.43307 -1.299217,-1.59552 v -9.43642 c 0,-1.89184 0.387486,-2.0058 1.983015,-2.07418 0.136759,-0.13676 0.136759,-0.61542 0,-0.75218 -1.025697,0.0228 -2.096981,0.0456 -2.963125,0.0456 -0.843351,0 -1.891841,-0.0228 -2.940331,-0.0456 -0.13676,0.13676 -0.13676,0.61542 0,0.75218 1.595528,0.0684 1.983014,0.18234 1.983014,2.07418 v 9.1401 c 0,1.89184 -0.387486,2.00581 -1.983014,2.07419 -0.13676,0.13676 -0.13676,0.61542 0,0.75218 0.888937,-0.0228 2.188153,-0.0456 2.963124,-0.0456 z" />
        </g>
        <g
           id="text5312"
           style="font-style:normal;font-weight:normal;font-size:33.0092px;line-height:125%;font-family:sans-serif;letter-spacing:0px;word-spacing:0px;fill:#d84a46;fill-opacity:1;stroke:none;stroke-width:1px;stroke-linecap:butt;stroke-linejoin:miter;stroke-opacity:1">
          <path
             id="path4590"
             style="font-style:italic;font-variant:normal;font-weight:500;font-stretch:normal;font-size:148.541px;font-family:'Chancery URW';-inkscape-font-specification:'Chancery URW Medium Italic';fill:#d84a46;fill-opacity:1"
             d="m -222.16778,269.16222 c 1.33687,1.03979 1.63395,1.33688 3.11937,1.63396 4.15916,-1.7825 9.06103,-3.565 12.32894,-4.45625 l 0.29708,-1.18833 c -1.33687,-2.07958 -1.63395,-3.26791 -1.63395,-5.34749 0,-3.11937 0.59416,-7.12999 2.5252,-15.29977 h 2.67375 3.56499 2.37667 l 5.49603,-7.72416 c -2.5252,0.14854 -4.45624,0.14854 -5.49603,0.14854 -1.63396,0 -3.26791,0 -6.83291,-0.14854 1.48541,-6.23874 4.01062,-17.67644 7.72416,-34.16454 2.97083,-13.66582 3.41645,-15.59686 5.34749,-22.42977 -2.67375,1.18833 -6.0902,2.82229 -10.3979,5.05041 -1.18834,1.48542 -2.37667,2.82229 -3.565,4.15916 -3.86208,4.45625 -7.72416,8.76395 -11.58624,13.07165 -3.56499,4.01062 -7.72415,8.91249 -12.32894,14.70561 l -12.32894,15.15123 c -4.01062,5.05041 -4.45625,5.79312 -7.12999,11.73478 4.15916,0.14854 22.72684,0.44563 26.88601,0.44563 h 5.19895 z m 4.15916,-32.38204 -7.27854,-0.14854 c -1.33687,0 -4.15916,-0.14855 -7.57561,-0.29709 l -4.75333,-0.14854 c 5.49604,-7.72416 8.02124,-10.84353 33.57038,-41.59161 -4.75333,19.90455 -6.68437,27.77725 -9.95228,42.18578 z" />
        </g>
        <g
           id="text3454"
           style="font-style:normal;font-weight:normal;font-size:35.0168px;line-height:125%;font-family:sans-serif;letter-spacing:0px;word-spacing:0px;fill:#d84a46;fill-opacity:1;stroke:none;stroke-width:1px;stroke-linecap:butt;stroke-linejoin:miter;stroke-opacity:1">
          <path
             id="path4573"
             style="font-style:normal;font-variant:normal;font-weight:normal;font-stretch:normal;font-family:'Linux Libertine';-inkscape-font-specification:'Linux Libertine';fill:#d84a46;fill-opacity:1"
             d="m -181.23999,256.76295 c 2.97643,0 3.08148,0.80538 3.18653,2.38114 0.2101,0.2101 0.94545,0.2101 1.15555,0 -0.035,-0.87542 -0.07,-1.85589 -0.07,-3.08148 0,-1.15555 0.035,-2.101 0.07,-3.01144 -0.2101,-0.2101 -0.94545,-0.2101 -1.15555,0 -0.10505,1.92592 -0.2101,2.38114 -3.18653,2.38114 h -3.25656 v -6.30302 c 0,-1.8909 0.4202,-2.24107 1.96094,-2.24107 h 1.57576 c 3.71177,0 4.58719,1.40067 5.35756,3.81683 0.4202,0 0.80539,-0.07 1.08552,-0.17509 -0.2101,-1.43568 -0.73535,-4.79729 -0.77037,-5.07743 -0.035,-0.07 -0.07,-0.10505 -0.14007,-0.10505 -0.6303,0.14007 -0.77036,0.14007 -1.64578,0.14007 h -8.92928 c -1.12054,0 -3.11649,-0.035 -4.51716,-0.07 -0.2101,0.21011 -0.2101,0.94546 0,1.15556 2.45117,0.10505 3.04646,0.28013 3.04646,3.18652 v 14.04173 c 0,2.90639 -0.59529,3.08147 -3.04646,3.18652 -0.2101,0.21011 -0.2101,0.94546 0,1.15556 1.22558,-0.035 2.97642,-0.07 4.55218,-0.07 1.57575,0 3.29157,0.035 4.51716,0.07 0.2101,-0.2101 0.2101,-0.94545 0,-1.15556 -2.45117,-0.10505 -3.04646,-0.28013 -3.04646,-3.18652 v -7.03837 h 3.25656 z" />
          <path
             id="path4575"
             style="font-style:normal;font-variant:normal;font-weight:normal;font-stretch:normal;font-family:'Linux Libertine';-inkscape-font-specification:'Linux Libertine';fill:#d84a46;fill-opacity:1"
             d="m -164.66392,246.433 c 2.13602,0 4.65723,0.77037 4.65723,4.90235 0,4.37709 -2.4862,5.35756 -5.88282,5.35756 h -1.68081 v -8.01884 c 0,-1.01548 0.4202,-2.24107 2.9064,-2.24107 z m -2.9064,17.36832 v -5.91784 c 2.94141,0 3.57171,0.52526 4.09697,1.33064 l 3.74679,6.09292 c 0.98047,1.64579 2.52121,3.11649 4.62221,3.11649 0.52525,0 1.12054,-0.07 1.47071,-0.24512 0.10505,-0.2101 0.10505,-0.56026 -0.035,-0.8404 -1.57575,0 -2.45117,-1.15555 -3.36161,-2.69629 l -4.41211,-7.35352 c 1.50572,-0.49024 4.65723,-2.31111 4.65723,-5.98787 0,-1.75084 -0.59529,-3.18652 -1.85589,-4.37709 -1.68081,-1.57576 -3.85185,-1.68081 -6.0579,-1.68081 -1.64579,0 -3.11649,0.24512 -4.3771,0.24512 -1.22558,0 -2.87137,-0.035 -4.51716,-0.07 -0.2101,0.21011 -0.2101,0.94546 0,1.15556 2.45117,0.10505 3.04646,0.28013 3.04646,3.18652 v 14.04173 c 0,2.90639 -0.59529,3.08147 -3.04646,3.18652 -0.2101,0.21011 -0.2101,0.94546 0,1.15556 1.57575,-0.035 3.18652,-0.07 4.55218,-0.07 1.29562,0 2.97642,0.035 4.51716,0.07 0.2101,-0.2101 0.2101,-0.94545 0,-1.15556 -2.45117,-0.10505 -3.04646,-0.28013 -3.04646,-3.18652 z" />
          <path
             id="path4577"
             style="font-style:normal;font-variant:normal;font-weight:normal;font-stretch:normal;font-family:'Linux Libertine';-inkscape-font-specification:'Linux Libertine';fill:#d84a46;fill-opacity:1"
             d="m -143.76274,255.43231 h -3.18653 v -6.30302 c 0,-1.54074 0.4202,-2.24107 2.31111,-2.24107 h 2.62626 c 2.62625,0 3.18652,1.40067 3.95689,3.81683 0.4202,0.07 0.80539,0 1.15555,-0.17509 -0.17508,-1.43568 -0.70033,-4.79729 -0.77037,-5.07743 0,-0.07 -0.035,-0.10505 -0.14006,-0.10505 -0.59529,0.10505 -0.87542,0.14007 -1.71582,0.14007 h -8.92928 c -1.08552,0 -3.11649,-0.035 -4.51716,-0.07 -0.2101,0.21011 -0.2101,0.94546 0,1.15556 2.45117,0.10505 3.04646,0.28013 3.04646,3.18652 v 14.04173 c 0,2.90639 -0.59529,3.08147 -3.04646,3.18652 -0.2101,0.21011 -0.2101,0.94546 0,1.15556 1.29562,-0.035 3.39662,-0.07 4.55218,-0.07 h 7.5286 c 1.68081,0 4.48215,0.07 4.48215,0.07 0.49023,-1.75084 1.01548,-4.06195 1.29562,-5.8478 -0.38519,-0.17509 -0.77037,-0.28014 -1.22559,-0.17509 -0.70033,2.52121 -1.92592,4.5872 -4.58719,4.5872 h -4.06195 c -1.4707,0 -1.96094,-0.56027 -1.96094,-2.20606 v -7.7387 h 3.18653 c 2.97642,0 3.08147,0.80538 3.18652,2.38114 0.2101,0.2101 0.94546,0.2101 1.15556,0 -0.035,-0.91044 -0.07,-1.85589 -0.07,-3.08148 0,-0.98047 0.035,-2.17104 0.07,-3.01144 -0.2101,-0.2101 -0.94546,-0.2101 -1.15556,0 -0.10505,1.92592 -0.2101,2.38114 -3.18652,2.38114 z" />
          <path
             id="path4579"
             style="font-style:normal;font-variant:normal;font-weight:normal;font-stretch:normal;font-family:'Linux Libertine';-inkscape-font-specification:'Linux Libertine';fill:#d84a46;fill-opacity:1"
             d="m -124.27099,255.43231 h -3.18652 v -6.30302 c 0,-1.54074 0.4202,-2.24107 2.3111,-2.24107 h 2.62626 c 2.62626,0 3.18653,1.40067 3.9569,3.81683 0.4202,0.07 0.80538,0 1.15555,-0.17509 -0.17508,-1.43568 -0.70034,-4.79729 -0.77037,-5.07743 0,-0.07 -0.035,-0.10505 -0.14007,-0.10505 -0.59528,0.10505 -0.87541,0.14007 -1.71582,0.14007 h -8.92927 c -1.08552,0 -3.1165,-0.035 -4.51717,-0.07 -0.2101,0.21011 -0.2101,0.94546 0,1.15556 2.45118,0.10505 3.04646,0.28013 3.04646,3.18652 v 14.04173 c 0,2.90639 -0.59528,3.08147 -3.04646,3.18652 -0.2101,0.21011 -0.2101,0.94546 0,1.15556 1.29562,-0.035 3.39663,-0.07 4.55218,-0.07 h 7.52861 c 1.6808,0 4.48215,0.07 4.48215,0.07 0.49023,-1.75084 1.01548,-4.06195 1.29562,-5.8478 -0.38519,-0.17509 -0.77037,-0.28014 -1.22559,-0.17509 -0.70034,2.52121 -1.92592,4.5872 -4.5872,4.5872 h -4.06194 c -1.47071,0 -1.96094,-0.56027 -1.96094,-2.20606 v -7.7387 h 3.18652 c 2.97643,0 3.08148,0.80538 3.18653,2.38114 0.2101,0.2101 0.94545,0.2101 1.15555,0 -0.035,-0.91044 -0.07,-1.85589 -0.07,-3.08148 0,-0.98047 0.035,-2.17104 0.07,-3.01144 -0.2101,-0.2101 -0.94545,-0.2101 -1.15555,0 -0.10505,1.92592 -0.2101,2.38114 -3.18653,2.38114 z" />
          <path
             id="path4581"
             style="font-style:normal;font-variant:normal;font-weight:normal;font-stretch:normal;font-family:'Linux Libertine';-inkscape-font-specification:'Linux Libertine';fill:#d84a46;fill-opacity:1"
             d="m -107.93074,265.13196 v -16.80805 c 0,-1.22559 1.22559,-1.71583 2.94141,-1.71583 7.563622,0 10.049812,6.12794 10.049812,11.52052 0,7.07339 -4.237029,8.82423 -9.174392,8.82423 -3.43164,0 -3.81683,-0.70034 -3.81683,-1.82087 z m -1.50572,-19.64441 c -1.2606,0 -3.11649,-0.035 -4.51716,-0.07 -0.2101,0.21011 -0.2101,0.94546 0,1.15556 2.45117,0.10505 3.04646,0.28013 3.04646,3.18652 v 14.04173 c 0,2.90639 -0.59529,3.08147 -3.04646,3.18652 -0.2101,0.21011 -0.2101,0.94546 0,1.15556 1.36565,-0.035 3.22154,-0.07 4.55218,-0.07 1.29562,0 2.76632,0.07 6.37305,0.07 4.937363,0 11.450482,-2.24108 11.450482,-10.8552 0,-6.51312 -5.357566,-11.87069 -12.080782,-11.87069 -2.48619,0 -4.41212,0.07 -5.77777,0.07 z" />
          <path
             id="path4583"
             style="font-style:normal;font-variant:normal;font-weight:normal;font-stretch:normal;font-family:'Linux Libertine';-inkscape-font-specification:'Linux Libertine';fill:#d84a46;fill-opacity:1"
             d="m -78.475619,246.29293 c 4.622213,0 8.369008,3.85185 8.369008,10.92524 0,6.268 -3.011442,9.94476 -7.003354,9.94476 -4.272046,0 -8.298974,-3.81683 -8.298974,-10.54005 0,-7.35352 3.46666,-10.32995 6.93332,-10.32995 z m 11.730618,10.25992 c 0,-7.24847 -5.007398,-11.52052 -11.2754,-11.52052 -6.793253,0 -10.750148,5.4276 -10.750148,12.18584 0,6.8983 5.007398,11.20536 10.960249,11.20536 3.851844,0 6.968337,-1.64579 8.894259,-4.41211 1.400671,-1.96094 2.17104,-4.51716 2.17104,-7.45857 z" />
          <path
             id="path4585"
             style="font-style:normal;font-variant:normal;font-weight:normal;font-stretch:normal;font-family:'Linux Libertine';-inkscape-font-specification:'Linux Libertine';fill:#d84a46;fill-opacity:1"
             d="m -42.332296,264.01142 c 0.175084,2.83636 0.07003,2.87137 -2.206056,2.97642 -0.210101,0.21011 -0.210101,0.94546 0,1.15556 1.29562,-0.035 2.696291,-0.07 3.746794,-0.07 1.050503,0 2.626258,0.035 3.816828,0.07 0.2101,-0.2101 0.2101,-0.94545 0,-1.15556 -2.38114,-0.10505 -2.521208,-0.24511 -2.696291,-3.1515 l -1.050503,-14.74206 c -0.140068,-1.89091 0.03502,-2.38115 2.416157,-2.52121 0.2101,-0.2101 0.2101,-0.94545 0,-1.15556 l -4.587197,0.07 -7.423555,17.7535 c -0.140067,0.35017 -0.245118,0.49023 -0.315151,0.49023 -0.07003,0 -0.175084,-0.17508 -0.280134,-0.45521 l -7.178438,-17.78852 -5.077432,-0.07 c -0.2101,0.21011 -0.2101,0.94546 0,1.15556 2.416157,0.14006 2.626258,0.2101 2.381141,2.83636 l -1.435688,14.42691 c -0.175084,2.101 -0.595285,2.97642 -2.591241,3.1515 -0.2101,0.21011 -0.2101,0.94546 0,1.15556 1.050503,-0.035 2.17104,-0.07 3.011442,-0.07 0.840403,0 2.241074,0.035 3.291577,0.07 0.2101,-0.2101 0.2101,-0.94545 0,-1.15556 -2.311107,-0.17508 -2.521208,-1.22558 -2.311107,-3.22154 l 1.330637,-14.04172 h 0.07003 l 7.248471,18.1737 c 0.07003,0.28013 0.315151,0.52525 0.525251,0.52525 0.210101,0 0.350168,-0.24512 0.490235,-0.52525 l 7.878773,-18.52387 h 0.07003 l 0.875419,14.63701 z" />
          <path
             id="path4587"
             style="font-style:normal;font-variant:normal;font-weight:normal;font-stretch:normal;font-family:'Linux Libertine';-inkscape-font-specification:'Linux Libertine';fill:#d84a46;fill-opacity:1"
             d="m -22.308175,245.97778 c -2.030973,-0.28013 -1.925922,-0.94545 -5.357566,-0.94545 -3.536693,0 -6.653186,2.34612 -6.653186,6.0579 0,3.71178 3.011442,5.39258 6.092918,6.54814 2.136023,0.8404 4.727264,1.82087 4.727264,5.2175 0,2.83635 -1.610772,4.30706 -4.377096,4.30706 -3.291577,0 -5.392583,-1.47071 -6.162952,-4.97238 -0.420201,-0.14007 -0.805385,-0.07 -1.120536,0.10505 0.140067,2.69629 0.280134,3.60672 0.700335,5.32255 2.206057,0 3.151509,0.80538 6.268002,0.80538 1.610771,0 3.116492,-0.38518 4.342079,-1.12053 1.995956,-1.26061 3.291577,-3.43165 3.291577,-5.67272 0,-3.71178 -2.836359,-5.35757 -5.707734,-6.40807 -2.065989,-0.80539 -5.567666,-2.10101 -5.567666,-5.07743 0,-1.96094 1.785855,-3.92188 3.816828,-3.92188 3.431643,0 4.517163,2.17104 5.217498,4.48215 0.350168,0.07 0.805386,0.035 1.120537,-0.2101 -0.10505,-1.68081 -0.245117,-2.66128 -0.630302,-4.51717 z" />
        </g>
        <g
           id="text5320"
           style="font-style:normal;font-weight:normal;font-size:35.0168px;line-height:125%;font-family:sans-serif;letter-spacing:0px;word-spacing:0px;fill:#02091c;fill-opacity:1;stroke:none;stroke-width:1px;stroke-linecap:butt;stroke-linejoin:miter;stroke-opacity:1">
          <path
             id="path4566"
             style="font-style:normal;font-variant:normal;font-weight:normal;font-stretch:normal;font-size:22.7933px;font-family:'Linux Libertine';-inkscape-font-specification:'Linux Libertine';fill:#02091c;fill-opacity:1"
             d="m -182.76779,234.23801 v -8.70703 c 0,-1.45877 0.22793,-2.32492 1.04849,-2.32492 h 0.50145 c 1.70949,0 2.78078,0.59263 3.16826,2.34771 0.25073,0 0.56983,-0.0228 0.77497,-0.11397 -0.15955,-1.04849 -0.27352,-2.21094 -0.29631,-3.23664 0,-0.0228 -0.0456,-0.0684 -0.0684,-0.0684 -0.77497,0.0684 -3.30502,0.18235 -5.10569,0.18235 h -1.96022 c -1.75508,0 -4.44469,-0.11397 -5.31083,-0.18235 -0.0456,0 -0.0912,0.0456 -0.0912,0.0684 -0.0912,1.0257 -0.3191,2.21095 -0.56983,3.30502 0.22793,0.0912 0.50145,0.11397 0.77497,0.11397 0.45587,-1.82346 1.50436,-2.41609 3.00871,-2.41609 h 1.11687 c 0.84336,0 1.07129,0.86615 1.07129,2.25654 v 8.77541 c 0,1.89184 -0.38749,2.0058 -2.21095,2.07418 -0.13676,0.13676 -0.13676,0.61542 0,0.75218 1.11687,-0.0228 2.25653,-0.0456 3.19106,-0.0456 0.86614,0 2.0286,0.0228 3.16826,0.0456 0.13676,-0.13676 0.13676,-0.61542 0,-0.75218 -1.82346,-0.0684 -2.21094,-0.18234 -2.21094,-2.07418 z" />
          <path
             id="path4568"
             style="font-style:normal;font-variant:normal;font-weight:normal;font-stretch:normal;font-size:22.7933px;font-family:'Linux Libertine';-inkscape-font-specification:'Linux Libertine';fill:#02091c;fill-opacity:1"
             d="m -163.03666,234.23801 v -9.1401 c 0,-1.89185 0.38748,-2.00581 1.98301,-2.07419 0.13676,-0.13676 0.13676,-0.61542 0,-0.75218 -0.93452,0.0228 -2.09698,0.0456 -2.96312,0.0456 -0.86615,0 -1.93743,-0.0228 -2.94033,-0.0456 -0.13676,0.13676 -0.13676,0.61542 0,0.75218 1.59553,0.0684 1.98301,0.18234 1.98301,2.07419 v 3.64692 h -7.7953 v -3.64692 c 0,-1.89185 0.38749,-2.00581 1.98302,-2.07419 0.13676,-0.13676 0.13676,-0.61542 0,-0.75218 -0.86615,0.0228 -1.80067,0.0456 -2.96313,0.0456 -1.13966,0 -2.07418,-0.0228 -2.94033,-0.0456 -0.13676,0.13676 -0.13676,0.61542 0,0.75218 1.59553,0.0684 1.98302,0.18234 1.98302,2.07419 v 9.1401 c 0,1.89184 -0.38749,2.0058 -1.98302,2.07418 -0.13676,0.13676 -0.13676,0.61542 0,0.75218 1.00291,-0.0228 2.09698,-0.0456 2.96313,-0.0456 0.82055,0 1.93742,0.0228 2.94033,0.0456 0.13676,-0.13676 0.13676,-0.61542 0,-0.75218 -1.59553,-0.0684 -1.98302,-0.18234 -1.98302,-2.07418 v -4.53586 h 7.7953 v 4.53586 c 0,1.89184 -0.38748,2.0058 -1.98301,2.07418 -0.13676,0.13676 -0.13676,0.61542 0,0.75218 1.02569,-0.0228 2.09698,-0.0456 2.96312,-0.0456 0.84335,0 1.93743,0.0228 2.94033,0.0456 0.13676,-0.13676 0.13676,-0.61542 0,-0.75218 -1.59553,-0.0684 -1.98301,-0.18234 -1.98301,-2.07418 z" />
          <path
             id="path4570"
             style="font-style:normal;font-variant:normal;font-weight:normal;font-stretch:normal;font-size:22.7933px;font-family:'Linux Libertine';-inkscape-font-specification:'Linux Libertine';fill:#02091c;fill-opacity:1"
             d="m -154.06822,228.79041 h -2.07419 v -4.10278 c 0,-1.00291 0.27352,-1.45877 1.50435,-1.45877 h 1.7095 c 1.70949,0 2.07419,0.91173 2.57564,2.48446 0.27352,0.0456 0.52424,0 0.75218,-0.11396 -0.11397,-0.93453 -0.45587,-3.12268 -0.50146,-3.30503 0,-0.0456 -0.0228,-0.0684 -0.0912,-0.0684 -0.38748,0.0684 -0.56983,0.0912 -1.11687,0.0912 h -5.81228 c -0.70659,0 -2.0286,-0.0228 -2.94033,-0.0456 -0.13676,0.13676 -0.13676,0.61542 0,0.75218 1.59553,0.0684 1.98301,0.18234 1.98301,2.07419 v 9.1401 c 0,1.89184 -0.38748,2.0058 -1.98301,2.07418 -0.13676,0.13676 -0.13676,0.61542 0,0.75218 0.84335,-0.0228 2.21094,-0.0456 2.96312,-0.0456 h 4.90055 c 1.09408,0 2.91754,0.0456 2.91754,0.0456 0.31911,-1.13966 0.66101,-2.64402 0.84335,-3.80648 -0.25072,-0.11396 -0.50145,-0.18234 -0.79776,-0.11396 -0.45587,1.64111 -1.25363,2.98592 -2.98592,2.98592 h -2.64402 c -0.95731,0 -1.27642,-0.3647 -1.27642,-1.43598 v -5.03731 h 2.07419 c 1.93742,0 2.0058,0.52424 2.07418,1.54994 0.13676,0.13676 0.61542,0.13676 0.75218,0 -0.0228,-0.59262 -0.0456,-1.20804 -0.0456,-2.00581 0,-0.63821 0.0228,-1.41318 0.0456,-1.96022 -0.13676,-0.13676 -0.61542,-0.13676 -0.75218,0 -0.0684,1.25363 -0.13676,1.54994 -2.07418,1.54994 z" />
        </g>
        <path
           id="rect6540"
           d="M -133.28572,-51.849621 V 522.28832 h -2 V -51.849621 Z"
           style="fill:#f2ebc8;fill-opacity:1;stroke:none;stroke-width:0;stroke-miterlimit:4;stroke-dasharray:none;stroke-opacity:1" />
        <text
           xml:space="preserve"
           transform="matrix(0.93749998,0,0,0.93749998,-505.50294,-63.784179)"
           id="text24101"
           style="font-style:normal;font-weight:normal;font-size:48px;line-height:25px;font-family:'TeX Gyre Termes';-inkscape-font-specification:'TeX Gyre Termes';letter-spacing:0px;word-spacing:0px;white-space:pre;shape-inside:url(#rect24103);fill:#d84a46;fill-opacity:1;stroke:none;stroke-width:1px;stroke-linecap:butt;stroke-linejoin:miter;stroke-opacity:1"><tspan
             x="107.29297"
             y="258.70314"
             id="tspan40602"><tspan
               style="font-family:'PT Sans Caption';-inkscape-font-specification:'PT Sans Caption'"
               id="tspan40600">0. RUN</tspan></tspan></text>
        <text
           xml:space="preserve"
           transform="matrix(0.93749998,0,0,0.93749998,-132.59285,-63.784179)"
           id="text29227"
           style="font-style:normal;font-weight:normal;font-size:48px;line-height:25px;font-family:'TeX Gyre Termes';-inkscape-font-specification:'TeX Gyre Termes';letter-spacing:0px;word-spacing:0px;white-space:pre;shape-inside:url(#rect29229);fill:#d84a46;fill-opacity:1;stroke:none;stroke-width:1px;stroke-linecap:butt;stroke-linejoin:miter;stroke-opacity:1"><tspan
             x="107.29297"
             y="258.70314"
             id="tspan40606"><tspan
               style="font-family:'PT Sans Caption';-inkscape-font-specification:'PT Sans Caption'"
               id="tspan40604">1. STUDY</tspan></tspan></text>
        <g
           transform="translate(3.7349301)"
           id="g4377">
          <path
             inkscape:connector-curvature="0"
             style="fill:#d84a46;fill-opacity:1"
             d="m 186.48633,80.216797 c -14.24225,0 -25.70703,11.466739 -25.70703,25.708983 v 55.50586 c 0,14.24225 11.46478,25.70898 25.70703,25.70898 h 19.86719 c 14.24224,0 25.70703,-11.46673 25.70703,-25.70898 v -55.50586 c 0,-14.242244 -11.46479,-25.708983 -25.70703,-25.708983 z m 11.73242,5.912109 h 5.05078 c 12.65975,0 22.84961,10.191728 22.84961,22.851564 v 21.92187 h -26.73047 v -7.83398 c 4.36906,-0.57346 7.72266,-4.28588 7.72266,-8.81641 V 95.039062 c 0,-4.93044 -3.96214,-8.910156 -8.89258,-8.910156 z m -1.79883,4.47461 c 3.29082,0 5.93945,3.010138 5.93946,6.75 v 14.576174 c 0,3.73986 -2.64864,6.75 -5.93946,6.75 -3.29082,0 -5.93945,-3.01014 -5.93945,-6.75 V 97.353516 c 0,-3.739862 2.64863,-6.75 5.93945,-6.75 z M 166.71875,136.8418 h 59.40039 v 21.47851 c 0,12.65975 -10.18986,22.84961 -22.84961,22.84961 h -13.70117 c -12.65983,0 -22.84961,-10.18986 -22.84961,-22.84961 z"
             transform="translate(-534.28571,-64.780651)"
             id="rect3803" />
          <path
             inkscape:connector-curvature="0"
             style="fill:url(#pattern6071);fill-opacity:1"
             d="m -344.71652,21.348184 c -12.65983,0 -22.85087,10.191036 -22.85087,22.850869 V 66.12168 h 26.73047 v -7.833482 c -4.36907,-0.573457 -7.72216,-4.286823 -7.72216,-8.817347 V 30.258338 c 0,-4.930441 3.96128,-8.910154 8.89164,-8.910154 z"
             id="path3840" />
          <path
             id="path3815"
             d="m -362.93428,-17.636315 c 13.29328,-0.173062 21.0245,4.500727 24.59579,9.9665647 3.57122,5.4659171 3.50304,11.4867771 3.43407,14.6461533 -0.0564,2.575987 0,13.43019 0,13.43019 l -5.94013,0.0143 c 0,0 -0.062,-10.703071 0,-13.5292749 0.066,-3.0389161 -0.0636,-8.3328042 -2.82152,-12.5538344 -2.75787,-4.2209508 -7.60019,-7.6009057 -19.1754,-7.4501717 h -10.66501 l 0.0207,-4.523849 z"
             style="color:#000000;font-style:normal;font-variant:normal;font-weight:normal;font-stretch:normal;font-size:medium;line-height:normal;font-family:'Bitstream Vera Sans';-inkscape-font-specification:'Bitstream Vera Sans';text-indent:0;text-align:start;text-decoration:none;text-decoration-line:none;letter-spacing:normal;word-spacing:normal;text-transform:none;writing-mode:lr-tb;direction:ltr;text-anchor:start;display:inline;overflow:visible;visibility:visible;fill:#d84a46;fill-opacity:1;stroke:none;stroke-width:10;marker:none;enable-background:accumulate"
             inkscape:connector-curvature="0"
             sodipodi:nodetypes="cssccsscccc" />
        </g>
        <g
           transform="matrix(0.76579219,0,0,0.76579219,1143.8938,-925.83469)"
           id="g8100">
          <g
             id="g8095"
             style="fill:#d84a46;fill-opacity:1">
            <path
               id="path7785"
               d="m -1422.5684,1774.582 c 0,8.2188 6.6338,14.8565 14.8438,14.8565 8.2075,0 14.8452,-6.6465 14.8452,-14.8565 0,-8.1836 -29.689,-8.1836 -29.689,0 z"
               inkscape:connector-curvature="0"
               style="fill:#d84a46;fill-opacity:1" />
            <path
               id="path7787"
               d="m -1384.312,1776.0176 c 0,3.2363 -2.6367,5.8662 -5.8457,5.8662 h -35.1357 c -3.208,0 -5.8452,-2.6299 -5.8452,-5.8662 v -11.7012 c 0,-3.2314 2.6372,-5.8447 5.8452,-5.8447 h 35.1357 c 3.209,0 5.8457,2.6133 5.8457,5.8447 z"
               inkscape:connector-curvature="0"
               style="fill:#d84a46;fill-opacity:1" />
            <path
               id="path7789"
               d="m -1407.7246,1642.3262 c -25.0527,0 -45.3687,20.3125 -45.3687,45.3711 0,25.7304 22.1396,40.7148 22.1396,53.9062 v 3.21 c 0,3.2148 2.6147,5.8076 5.8008,5.8076 h 34.8496 c 3.1855,0 5.793,-2.5928 5.793,-5.8076 v -3.1709 c 0,-13.2305 22.1484,-27.7871 22.1484,-53.9453 1e-4,-25.0586 -20.3124,-45.3711 -45.3627,-45.3711 z m -24.4849,61.3906 c -3.4033,-4.7773 -5.4087,-10.5762 -5.4087,-16.8574 0,-16.2481 13.3687,-29.4356 29.854,-29.4356 5.7402,0 11.0898,1.6172 15.6328,4.4073 -0.5498,-0.031 -1.1133,-0.094 -1.6777,-0.094 -21.3257,0 -38.5947,17.0576 -38.5947,38.0947 0,1.295 0.08,2.6211 0.1943,3.8848 z"
               inkscape:connector-curvature="0"
               style="fill:#d84a46;fill-opacity:1" />
          </g>
          <path
             id="line7791"
             d="m -1407.7246,1617.9902 v -23.4131"
             style="fill:#2b0000;stroke:#d84a46;stroke-width:2;stroke-linecap:round;stroke-linejoin:round;stroke-miterlimit:10;stroke-opacity:1" />
          <path
             id="line7793"
             d="m -1337.4849,1688.2305 h 23.4141"
             style="fill:#2b0000;stroke:#d84a46;stroke-width:2;stroke-linecap:round;stroke-linejoin:round;stroke-miterlimit:10;stroke-opacity:1" />
          <path
             id="line7795"
             d="m -1501.3789,1688.2305 h 23.4136"
             style="fill:#2b0000;stroke:#d84a46;stroke-width:2;stroke-linecap:round;stroke-linejoin:round;stroke-miterlimit:10;stroke-opacity:1" />
          <path
             id="line7797"
             d="m -1358.0649,1737.9082 16.5556,16.5557"
             style="fill:#2b0000;stroke:#d84a46;stroke-width:2;stroke-linecap:round;stroke-linejoin:round;stroke-miterlimit:10;stroke-opacity:1" />
          <path
             id="line7799"
             d="m -1473.9463,1622.0156 16.561,16.5537"
             style="fill:#2b0000;stroke:#d84a46;stroke-width:2;stroke-linecap:round;stroke-linejoin:round;stroke-miterlimit:10;stroke-opacity:1" />
          <path
             id="line7801"
             d="m -1457.4033,1737.9014 -16.5503,16.5449"
             style="fill:#2b0000;stroke:#d84a46;stroke-width:2;stroke-linecap:round;stroke-linejoin:round;stroke-miterlimit:10;stroke-opacity:1" />
          <path
             id="line7803"
             d="m -1341.5093,1622.0156 -16.5556,16.5537"
             style="fill:#2b0000;stroke:#d84a46;stroke-width:2;stroke-linecap:round;stroke-linejoin:round;stroke-miterlimit:10;stroke-opacity:1" />
        </g>
        <path
           style="fill:#d84a46;fill-opacity:1"
           inkscape:connector-curvature="0"
           d="m -305.6329,344.50334 c -14.36262,0 -26.27189,10.48709 -28.49881,24.2209 -2.22693,-13.73381 -14.13537,-24.2209 -28.49719,-24.2209 -15.94852,0 -28.87758,12.92905 -28.87758,28.87676 0,6.23849 1.97931,12.01433 5.34251,16.73618 5.235,7.34788 52.03307,54.38706 52.03307,54.38706 0,0 46.58386,-46.92026 51.83596,-54.11338 3.48375,-4.77071 5.53963,-10.65 5.53963,-17.00986 -0.002,-15.94771 -12.92906,-28.87676 -28.87759,-28.87676 z"
           id="path4170" />
        <g
           style="fill:#d84a46;fill-opacity:1"
           transform="matrix(0.77248793,0,0,0.77248793,-468.22636,-565.73018)"
           id="g4176">
          <g
             style="fill:#d84a46;fill-opacity:1"
             id="g4178">
            <path
               style="clip-rule:evenodd;fill:#d84a46;fill-opacity:1;fill-rule:evenodd"
               inkscape:connector-curvature="0"
               d="m 721.904,829.035 c -0.904,2.307 1.6,4.434 0.67,8.711 -2.797,4.412 -7.15,10.33 -12.809,12.328 -2.609,0.922 -5.494,1.01 -8.635,-0.268 -34.803,20.855 -78.18,-5.705 -81.08,-41.545 -2.315,-28.619 16.888,-56.576 48.246,-59.635 44.104,-4.304 75.288,42.077 53.608,80.409 z m -80.845,-46.871 c -0.992,1.627 -4.941,9.186 -5.61,17.393 -0.916,11.225 4.105,23.021 9.537,29.174 19.233,21.783 57.411,12.916 66.204,-12.904 10.113,-29.705 -14.859,-54.438 -41.518,-51.055 -13.624,1.73 -23.652,9.251 -28.613,17.392 z"
               id="path4180" />
          </g>
          <g
             style="fill:#d84a46;fill-opacity:1"
             id="g4182">
            <path
               style="clip-rule:evenodd;fill:#d84a46;fill-opacity:1;fill-rule:evenodd"
               inkscape:connector-curvature="0"
               d="m 726.594,841.768 c 5.041,4.164 11.338,9.926 18.764,16.752 4.555,4.186 16.527,12.125 17.422,16.75 1.416,7.336 -7.383,16.309 -14.742,15.412 -6.143,-0.748 -12.736,-11.617 -18.092,-17.422 -6.045,-6.549 -11.955,-12.939 -16.082,-18.762 6.243,-2.244 10.14,-6.836 12.73,-12.73 z"
               id="path4184" />
          </g>
        </g>
        <text
           xml:space="preserve"
           transform="matrix(0.93749998,0,0,0.93749998,-531.17542,258.97898)"
           id="text33217"
           style="font-style:normal;font-weight:normal;font-size:48px;line-height:25px;font-family:'TeX Gyre Termes';-inkscape-font-specification:'TeX Gyre Termes';letter-spacing:0px;word-spacing:0px;white-space:pre;shape-inside:url(#rect33219);fill:#d84a46;fill-opacity:1;stroke:none;stroke-width:1px;stroke-linecap:butt;stroke-linejoin:miter;stroke-opacity:1"><tspan
             x="107.29297"
             y="258.70314"
             id="tspan40610"><tspan
               style="font-family:'PT Sans Caption';-inkscape-font-specification:'PT Sans Caption'"
               id="tspan40608">2. SHARE</tspan></tspan></text>
        <text
           xml:space="preserve"
           transform="matrix(0.93749998,0,0,0.93749998,-158.96276,258.97898)"
           id="text36129"
           style="font-style:normal;font-weight:normal;font-size:48px;line-height:25px;font-family:'TeX Gyre Termes';-inkscape-font-specification:'TeX Gyre Termes';letter-spacing:0px;word-spacing:0px;white-space:pre;shape-inside:url(#rect36131);fill:#d84a46;fill-opacity:1;stroke:none;stroke-width:1px;stroke-linecap:butt;stroke-linejoin:miter;stroke-opacity:1"><tspan
             x="107.29297"
             y="258.70314"
             id="tspan40614"><tspan
               style="font-family:'PT Sans Caption';-inkscape-font-specification:'PT Sans Caption'"
               id="tspan40612">3. IMPROVE</tspan></tspan></text>
      </g>
    </g>
  </g>
</svg>
