<?xml version="1.0" encoding="UTF-8" standalone="no"?>
<svg
   width="663.53711"
   height="645.55267"
   viewBox="0 0 175.56086 170.80248"
   version="1.1"
   id="svg8"
   sodipodi:docname="help_needed.svg"
   inkscape:version="1.1 (c68e22c387, 2021-05-23)"
   xmlns:inkscape="http://www.inkscape.org/namespaces/inkscape"
   xmlns:sodipodi="http://sodipodi.sourceforge.net/DTD/sodipodi-0.dtd"
   xmlns="http://www.w3.org/2000/svg"
   xmlns:svg="http://www.w3.org/2000/svg"
   xmlns:rdf="http://www.w3.org/1999/02/22-rdf-syntax-ns#"
   xmlns:cc="http://creativecommons.org/ns#"
   xmlns:dc="http://purl.org/dc/elements/1.1/">
  <sodipodi:namedview
     id="namedview40670"
     pagecolor="#ffffff"
     bordercolor="#cccccc"
     borderopacity="1"
     inkscape:pageshadow="0"
     inkscape:pageopacity="1"
     inkscape:pagecheckerboard="0"
     showgrid="false"
     inkscape:zoom="1.1664424"
     inkscape:cx="331.34941"
     inkscape:cy="323.20499"
     inkscape:window-width="2560"
     inkscape:window-height="1371"
     inkscape:window-x="0"
     inkscape:window-y="0"
     inkscape:window-maximized="1"
     inkscape:current-layer="svg8" />
  <title
     id="title117">Donate, your help is needed, please donate now (refix)</title>
  <defs
     id="defs2">
    <rect
       x="44.269527"
       y="276.8428"
       width="574.99998"
       height="91.867188"
       id="rect44440" />
    <filter
       height="1.0016011"
       width="1.0016517"
       x="-0.00082587028"
       y="-0.00080056301"
       id="filter294"
       style="color-interpolation-filters:sRGB">
      <feGaussianBlur
         id="feGaussianBlur292"
         result="blur"
         stdDeviation="0.2 0.2" />
    </filter>
    <mask
       id="mask84"
       maskUnits="userSpaceOnUse">
      <path
         style="font-style:normal;font-variant:normal;font-weight:normal;font-stretch:normal;font-size:medium;line-height:1;font-family:'Arial Black';-inkscape-font-specification:'Arial Black, ';font-variant-ligatures:normal;font-variant-caps:normal;font-variant-numeric:normal;font-feature-settings:normal;text-align:center;writing-mode:lr-tb;text-anchor:middle;fill:#ffffff;fill-opacity:1;fill-rule:nonzero;stroke:none;stroke-width:1.99999964;stroke-linecap:square;stroke-linejoin:miter;stroke-miterlimit:4;stroke-dasharray:none;stroke-opacity:1;paint-order:markers fill stroke"
         d="m 6.7317246,310.93495 c -20.0820246,0 -35.7482286,11.93606 -46.9986906,35.80821 -11.250409,23.87223 -16.87562,57.23349 -16.87562,100.08386 0,30.67543 2.840704,56.21899 8.522207,76.62963 5.681449,20.41067 13.078616,35.33096 22.191462,44.76001 9.169111,9.42963 20.7288882,14.14416 34.6794269,14.14416 13.7255061,0 25.1728351,-5.43081 34.3419461,-16.29242 9.225348,-10.98104 16.256896,-26.25939 21.094535,-45.83458 4.893944,-19.6947 7.340903,-44.87961 7.340903,-75.55526 0,-42.25367 -5.56896,-75.07779 -16.70692,-98.47263 -11.13792,-23.51406 -27.00099,-35.27098 -47.5892494,-35.27098 z m -192.8886046,4.47598 v 262.47421 h 56.78657 c 6.8065,0 14.40052,-2.38712 22.78206,-7.16193 6.13149,-3.4614 11.869241,-10.38419 17.213209,-20.76852 5.343914,-10.50387 9.506591,-23.45435 12.487964,-38.85189 3.037611,-15.51677 4.556396,-37.30026 4.556396,-65.35002 0,-17.90409 -1.012496,-34.85339 -3.03761,-50.84756 -2.025074,-15.99436 -5.287677,-30.0192 -9.787889,-42.07461 -4.500144,-12.05548 -10.209733,-21.30586 -17.12872,-27.7514 -6.86276,-6.44554 -15.89124,-9.66828 -27.08541,-9.66828 z m 278.194945,0 V 577.88514 H 127.98327 V 433.7572 l 46.32362,144.12794 H 210.3364 V 315.41093 H 174.30689 V 460.61321 L 127.73,315.41093 Z m 176.350475,0 -46.49236,262.47421 h 39.06708 l 5.99087,-43.32799 h 43.53912 l 6.07529,43.32799 H 356.5638 L 310.07134,315.41093 Z m 79.82185,0 v 64.81303 h 38.98267 v 197.66118 h 38.22331 V 380.22396 h 38.98266 v -64.81303 z m 133.65502,0 v 262.47421 h 104.2915 V 518.44356 H 520.1731 v -51.74298 h 59.48661 V 413.16739 H 520.1731 v -41.71672 h 64.12749 V 315.41093 Z M 6.6473611,372.34597 c 8.0440039,0 14.4004689,5.72938 19.0694749,17.18796 4.72519,11.33932 7.087745,29.36287 7.087745,54.07058 0,29.36235 -2.250052,49.71351 -6.750264,61.05263 -4.500158,11.33955 -10.856677,17.0089 -19.0694749,17.0089 -7.9878063,0 -14.3161588,-5.78877 -18.9850981,-17.36698 -4.61266,-11.57786 -6.919004,-30.61594 -6.919004,-57.11395 0,-26.73667 2.334469,-45.89418 7.003368,-57.47215 4.6689523,-11.57798 10.8566765,-17.36699 18.5632531,-17.36699 z m -154.5809211,2.50667 h 9.53477 c 9.90036,0 16.98816,5.13255 21.26327,15.39742 4.27517,10.26491 6.41277,29.30327 6.41277,57.11419 0,21.00749 -0.9563,36.22589 -2.86887,45.65551 -1.91257,9.3102 -4.55641,15.87474 -7.93155,19.69439 -3.37511,3.70002 -9.05657,5.55024 -17.04436,5.55024 h -9.36603 z m 436.74167,8.59392 13.6692,94.35449 h -27.25414 z"
         id="path86" />
    </mask>
  </defs>
  <metadata
     id="metadata5">
    <rdf:RDF>
      <cc:Work
         rdf:about="">
        <dc:format>image/svg+xml</dc:format>
        <dc:type
           rdf:resource="http://purl.org/dc/dcmitype/StillImage" />
        <dc:title>Donate, your help is needed, please donate now (refix)</dc:title>
        <cc:license
           rdf:resource="http://creativecommons.org/publicdomain/zero/1.0/" />
        <dc:contributor>
          <cc:Agent>
            <dc:title>Malayali
https://openclipart.org/artist/Malayali
https://openclipart.org/edit/321221/donate-your-help-is-needed-please-donate-now</dc:title>
          </cc:Agent>
        </dc:contributor>
        <dc:subject>
          <rdf:Bag>
            <rdf:li>scratched</rdf:li>
            <rdf:li>texture</rdf:li>
            <rdf:li>round</rdf:li>
            <rdf:li>badge</rdf:li>
            <rdf:li>grey</rdf:li>
            <rdf:li>band</rdf:li>
            <rdf:li>gray</rdf:li>
            <rdf:li>white</rdf:li>
            <rdf:li>stylized</rdf:li>
            <rdf:li>fundraising</rdf:li>
            <rdf:li>textured</rdf:li>
            <rdf:li>banner</rdf:li>
            <rdf:li>seal</rdf:li>
            <rdf:li>retro</rdf:li>
            <rdf:li>support</rdf:li>
            <rdf:li>illustration</rdf:li>
            <rdf:li>help</rdf:li>
            <rdf:li>ink</rdf:li>
            <rdf:li>grunge</rdf:li>
            <rdf:li>donate</rdf:li>
            <rdf:li>donation</rdf:li>
            <rdf:li>design</rdf:li>
            <rdf:li>stamp</rdf:li>
            <rdf:li>sign</rdf:li>
            <rdf:li>icon</rdf:li>
            <rdf:li>symbol</rdf:li>
            <rdf:li>charity</rdf:li>
            <rdf:li>needed</rdf:li>
            <rdf:li>mark</rdf:li>
            <rdf:li>philanthropy</rdf:li>
            <rdf:li>vintage</rdf:li>
            <rdf:li>grungy</rdf:li>
            <rdf:li>background</rdf:li>
            <rdf:li>money</rdf:li>
            <rdf:li>label</rdf:li>
            <rdf:li>image</rdf:li>
            <rdf:li>generous</rdf:li>
            <rdf:li>rubber</rdf:li>
            <rdf:li>contribution</rdf:li>
            <rdf:li>giving</rdf:li>
            <rdf:li>isolated</rdf:li>
            <rdf:li>imprint</rdf:li>
            <rdf:li>concept</rdf:li>
            <rdf:li>rubber stamp</rdf:li>
            <rdf:li>RubberStamp</rdf:li>
          </rdf:Bag>
        </dc:subject>
        <dc:description>Stamp with the text &quot;your help is needed&quot; and &quot;please donate now&quot;. </dc:description>
        <dc:creator>
          <cc:Agent>
            <dc:title>Arvin61r58</dc:title>
          </cc:Agent>
        </dc:creator>
        <dc:publisher>
          <cc:Agent>
            <dc:title>Openclipart.org</dc:title>
          </cc:Agent>
        </dc:publisher>
        <dc:identifier>https://openclipart.org/</dc:identifier>
        <dc:source />
      </cc:Work>
      <cc:License
         rdf:about="http://creativecommons.org/publicdomain/zero/1.0/">
        <cc:permits
           rdf:resource="http://creativecommons.org/ns#Reproduction" />
        <cc:permits
           rdf:resource="http://creativecommons.org/ns#Distribution" />
        <cc:permits
           rdf:resource="http://creativecommons.org/ns#DerivativeWorks" />
      </cc:License>
    </rdf:RDF>
  </metadata>
  <path
     style="font-style:normal;font-variant:normal;font-weight:normal;font-stretch:normal;font-size:medium;line-height:1;font-family:'Arial Black';-inkscape-font-specification:'Arial Black, ';font-variant-ligatures:normal;font-variant-caps:normal;font-variant-numeric:normal;font-feature-settings:normal;text-align:center;writing-mode:lr-tb;text-anchor:middle;fill:#000000;fill-opacity:1;fill-rule:nonzero;stroke:none;stroke-width:1;stroke-linecap:square;stroke-linejoin:miter;stroke-miterlimit:4;stroke-dasharray:none;stroke-opacity:1;paint-order:markers fill stroke;filter:url(#filter294)"
     d="m 384.67773,140.04102 c -17.65481,0 -34.95065,1.54203 -51.77148,4.47265 -0.77178,0.24786 -1.54497,0.48921 -2.31641,0.73828 0.0767,-0.11875 0.1644,-0.25246 0.24414,-0.375 -21.54073,3.9095 -42.28203,10.12054 -61.96093,18.3711 -0.47547,0.48121 -0.88305,0.94668 -1.16602,1.37695 -0.45037,-0.0789 -0.95898,-0.18423 -1.42383,-0.26953 -8.51312,3.66415 -16.82691,7.70111 -24.91211,12.10937 -1.99092,2.73923 -3.9827,5.47821 -5.97461,8.2168 -1.53341,-0.70143 -3.05435,-1.438 -4.57617,-2.16992 -17.93507,10.74441 -34.652,23.3088 -49.90429,37.4375 -1.31499,3.72381 -2.63441,7.44579 -3.96875,11.16016 -0.95003,-0.0344 -1.89841,-0.0659 -2.84961,-0.10938 1.4253,-2.85735 2.98123,-5.61731 4.71093,-8.21875 0.55349,-0.83246 1.13583,-1.652 1.71875,-2.4707 -41.32006,38.41121 -71.80888,88.31731 -86.347652,144.61328 h 16.544922 c 13.68775,-50.08357 40.71226,-94.63783 77.04883,-129.59571 -0.81246,0.14408 -1.37138,0.24212 -2.1211,0.375 2.5067,-6.43918 5.06596,-12.91069 7.68555,-19.43554 1.00263,-0.14846 1.6039,-0.24045 2.45899,-0.36914 0.39307,1.73474 1.01345,3.43087 1.40429,5.16601 1.53412,0.71507 3.01093,1.29144 4.44727,1.77149 14.55839,-12.27795 30.36041,-23.12708 47.20703,-32.31055 -1.27889,-0.53132 -2.559,-1.06072 -3.83399,-1.60351 2.99157,-4.24943 5.99467,-8.4885 9.00586,-12.71876 1.41058,1.03661 3.43885,2.6949 5.16602,4.6211 -1.49057,2.16232 -2.97535,4.32131 -4.50195,6.54883 -0.0306,0.0363 -0.0611,0.0729 -0.0918,0.10937 26.38996,-13.60935 55.19329,-23.20078 85.60351,-27.97656 -2.97082,-1.30442 -5.86053,-2.52045 -8.75195,-3.66016 -0.77862,-1.3392 -1.67886,-2.53014 -2.86133,-3.37304 -0.12245,-0.0874 -0.26231,-0.17322 -0.39062,-0.25977 8.5895,-2.98793 17.20052,-5.886 25.83398,-8.68945 h 0.002 c -0.3292,1.19057 -0.64522,2.38691 -0.9336,3.5957 -0.16743,0.70179 -0.30954,1.41186 -0.4414,2.12305 -4.40882,3.41773 -7.99368,6.68117 -12.02149,10.1914 14.35223,-2.23103 29.0577,-3.39648 44.03906,-3.39648 0.66679,0 1.32846,0.0208 1.99415,0.0254 0.53914,-0.26132 0.77646,-0.37795 1.31054,-0.63672 0.0382,0.22035 0.0747,0.4343 0.11328,0.6543 7.40882,0.0873 14.74835,0.45818 22.00977,1.10156 0.0639,-0.034 0.12791,-0.0675 0.19141,-0.10156 0.5221,0.0748 1.02553,0.15867 1.51562,0.25195 12.40698,1.17426 24.58415,3.13319 36.47266,5.84961 0.0264,-0.0246 0.056,-0.0498 0.084,-0.0742 -0.008,0.0299 -0.0159,0.0582 -0.0234,0.0879 17.69379,4.04697 34.74802,9.75737 51.00782,16.93555 0.32655,-0.33426 0.64943,-0.66538 0.96679,-0.99024 2.19772,0.24658 4.39219,0.5431 6.58008,0.94336 0.41325,1.31298 0.77386,2.65567 1.08594,4.01368 17.4864,8.43318 33.96101,18.61966 49.22656,30.30664 2.37872,-2.29331 4.38611,-4.98529 4.83984,-8.33008 0.36737,-2.70989 -0.95653,-5.07531 -2.5332,-7.38672 0.66626,-0.30644 1.33026,-0.61992 1.99609,-0.92773 -34.5719,-25.28597 -74.7418,-43.35572 -118.30078,-51.98438 -0.12359,1.02418 -0.20778,2.0476 -0.20703,3.0625 -1.83258,-0.0726 -3.66341,-0.16407 -5.49414,-0.27148 -0.69936,-1.4035 -1.39273,-2.80948 -2.07422,-4.22071 -16.50376,-2.81718 -33.4593,-4.30468 -50.76172,-4.30468 z m 1.65625,1.1621 c -0.0646,1.19819 -0.14411,2.392 -0.25976,3.57618 0.0578,0.30531 0.0996,0.56215 0.15625,0.86328 -2.43432,0.11743 -4.87014,0.23476 -7.30469,0.3418 1.01991,-0.68478 2.04072,-1.36807 3.05469,-2.06446 1.44325,-0.92614 2.89609,-1.82832 4.35351,-2.7168 z m 0.25196,6.72461 v 0.002 c 0.0151,8e-5 0.0431,0.002 0.0586,0.002 0.0151,0.0952 0.0342,0.18834 0.0508,0.2832 -0.18028,0.0927 -0.35904,0.18464 -0.53906,0.27735 -0.0922,-0.0351 -0.1867,-0.0518 -0.2793,-0.0879 -0.93951,-0.36582 -0.43258,-0.48431 0.70899,-0.47657 z m 32.86718,4 c 1.31309,0.8211 2.62696,1.63569 3.95508,2.41211 0.0476,0.0987 0.0992,0.19575 0.14649,0.29493 -2.01154,-0.40889 -4.21651,-0.80985 -6.14649,-1.50977 0.68308,-0.39538 1.36457,-0.79527 2.04492,-1.19727 z M 292.24023,163.9082 c 0.61214,0.0646 1.19635,0.12146 1.79688,0.1836 5.3e-4,0.003 -5.7e-4,0.004 0,0.01 -0.61992,-0.0651 -1.17632,-0.11308 -1.80859,-0.18164 0.003,-0.003 0.008,-0.007 0.0117,-0.0117 z m 1.92969,1.70703 c 0.0552,0.654 0.11084,1.30885 0.16602,1.96289 -0.72401,-0.0656 -1.42951,-0.13514 -2.12305,-0.19531 -0.0227,-0.31317 -0.0378,-0.62629 -0.0586,-0.93945 0.11792,-0.0444 0.24057,-0.0859 0.35547,-0.13477 0.55234,-0.23573 1.10717,-0.45964 1.66015,-0.69336 z m -30.43164,2.98829 c 0.48885,0.0695 0.96882,0.14091 1.45899,0.20898 -0.11717,0.0754 -0.23194,0.15107 -0.34571,0.22852 -0.37001,-0.15239 -0.7405,-0.29741 -1.11328,-0.4375 z m 240.01953,4.04882 c -0.10167,0.10901 -0.20264,0.21916 -0.30469,0.32813 -1.96637,0.54515 -4.04428,1.11254 -5.35351,1.41797 0.0726,-0.3255 0.16124,-0.6474 0.25195,-0.96875 0.49293,-0.14499 0.98026,-0.28573 1.4668,-0.42578 1.29233,-0.0927 2.60441,-0.20953 3.93945,-0.35157 z m 18.34766,3.59571 c 1.70517,1.42325 3.33901,2.96056 4.88476,4.63281 -1.11991,-0.20319 -2.24303,-0.39043 -3.36914,-0.57227 -0.46374,-1.39158 -0.96963,-2.75048 -1.51562,-4.06054 z m -15.82617,1.99023 h 0.002 c 0.004,0.0147 0.006,0.0261 0.0137,0.041 -0.0839,-0.004 -0.17,-0.0166 -0.2539,-0.0215 0.0574,-0.004 0.18083,-0.0191 0.23828,-0.0195 z m -8.57618,0.61914 c 0.0609,0.004 0.1208,0.0146 0.18165,0.0195 0.0151,0.002 0.0342,0.004 0.0508,0.01 -0.0741,0.0794 -0.1482,0.1594 -0.22266,0.23828 -0.003,-0.0888 -0.0117,-0.17243 -0.0117,-0.26367 z m 27.42969,6.86328 c 0.38888,0.1889 0.77966,0.37278 1.16211,0.57813 -0.28271,0.32746 -0.56709,0.65475 -0.84961,0.98242 -0.0994,-0.52173 -0.19684,-1.04326 -0.3125,-1.56055 z m -146.39258,3.88672 c -0.34393,-0.006 -0.69863,-3.7e-4 -1.06445,0.0176 l -13.43555,0.6543 1.2461,26.69336 8.11719,-0.39454 -0.46094,-9.90624 4.42383,-0.21485 c 3.25957,-0.15844 5.64684,-1.03462 7.1582,-2.62891 1.52326,-1.59485 2.22152,-3.74068 2.0957,-6.43554 -0.12245,-2.62203 -0.94894,-4.60594 -2.47851,-5.95508 -1.3279,-1.18099 -3.19503,-1.79135 -5.60157,-1.83008 z m 28.10547,0.57031 -2.37109,26.61329 8.07617,0.75 0.13867,-1.54688 c -0.24378,-0.17911 -0.49429,-0.35653 -0.76562,-0.52344 -1.59833,-0.98319 -3.31908,-1.62429 -5.08008,-2.13867 1.0484,-1.82785 2.0751,-3.67717 3.0918,-5.53515 1.00603,1.22574 2.06692,2.45884 3.15429,3.6914 l 1.83399,-20.5625 z m -177.1289,0.38868 c 0.35603,0.15337 0.7139,0.30413 1.07031,0.45703 -0.32202,0.44238 -0.64259,0.88594 -0.96484,1.32812 -0.034,-0.62697 -0.0775,-1.23945 -0.10547,-1.78515 z m 200.22461,2.26171 c -0.39209,-0.008 -0.74826,0.0156 -1.10743,0.0371 -0.034,0.62394 -0.0623,1.24816 -0.10351,1.8711 -0.74967,1.0256 -1.49942,2.05023 -2.24414,3.08008 -1.65525,0.0287 -3.3111,0.0805 -4.9668,0.12304 -0.10356,0.31522 -0.18518,0.63951 -0.24414,0.97266 -0.18217,1.03151 -0.15917,2.00655 0.0684,2.92383 0.7974,-0.06 1.59514,-0.12104 2.39258,-0.17774 -0.50812,0.72117 -1.01063,1.4484 -1.51172,2.17578 0.1251,0.19234 0.25742,0.38213 0.4043,0.56836 1.25416,1.60123 3.55682,3.12298 6.9082,4.56641 2.04877,0.87056 3.31947,1.62944 3.81055,2.27539 0.49092,0.64594 0.6769,1.31045 0.55664,1.99219 -0.12662,0.71761 -0.55116,1.29449 -1.26953,1.73047 -0.70451,0.42618 -1.62477,0.53517 -2.76172,0.32617 -1.52372,-0.2801 -2.60184,-1.02885 -3.23438,-2.24414 -0.38778,-0.75047 -0.5517,-1.7687 -0.49414,-3.05469 l -7.66406,-0.9082 c -0.24605,2.69612 0.32316,5.0612 1.70703,7.09375 1.38372,2.03254 4.26671,3.45 8.65039,4.25586 2.49657,0.45894 4.63063,0.47477 6.40039,0.0469 1.77184,-0.43988 3.24072,-1.28777 4.40625,-2.54297 1.16549,-1.2552 1.89561,-2.7257 2.19336,-4.41211 0.25323,-1.43523 0.13719,-2.79671 -0.34961,-4.08398 -0.47501,-1.28512 -1.40059,-2.45439 -2.77539,-3.50977 -1.36089,-1.06517 -3.71453,-2.30163 -7.06055,-3.70703 -1.35371,-0.55756 -2.18814,-1.04318 -2.50195,-1.45898 -0.32768,-0.40599 -0.45272,-0.81772 -0.37891,-1.23633 0.1013,-0.57409 0.42048,-1.01572 0.95899,-1.32422 0.54062,-0.32046 1.27327,-0.39681 2.19922,-0.22656 1.12524,0.20685 1.95819,0.63841 2.49609,1.29297 0.54973,0.65672 0.82045,1.59572 0.81055,2.8164 l 7.58398,0.93164 c 0.15307,-2.78726 -0.52588,-4.96262 -2.04101,-6.52539 -1.50123,-1.57255 -3.89782,-2.66212 -7.19141,-3.26757 -1.34207,-0.24669 -2.55806,-0.37937 -3.64648,-0.4004 z m -84.70313,0.10352 -7.99219,1.28906 4.08399,26.39649 20.4707,-3.29883 -0.0644,-0.41602 c -1.21032,-0.45628 -2.48785,-0.90162 -3.77735,-1.34375 1.11534,-0.50892 2.2183,-1.04926 3.32422,-1.58203 l -0.48828,-3.1582 -12.47656,2.00976 z m 29.67383,2.26563 c 1.51083,-0.0734 2.55446,0.16852 3.12891,0.72461 0.57441,0.55608 0.8808,1.25225 0.91992,2.08984 0.0401,0.86186 -0.24113,1.58869 -0.84571,2.17773 -0.60498,0.57691 -1.68576,0.90278 -3.24414,0.97852 l -1.98242,0.0957 -0.27734,-5.95312 z m -45.94727,0.79101 -12.53906,3.4961 c 0.60008,0.11206 1.20101,0.21754 1.80078,0.33203 -0.93014,0.18988 -1.53434,0.75681 -2.13672,1.53125 -0.69815,-0.38114 -1.37754,-0.78222 -2.03711,-1.20118 l -5.24609,1.4629 2.91992,10.90624 c 0.10205,-9.9e-4 0.2046,-7.9e-4 0.30664,-0.002 -0.0609,0.14771 -0.12784,0.29212 -0.18945,0.43945 l 3.86719,14.43555 21.29883,-5.93945 -1.56446,-5.83789 -13.47461,3.75781 -1.35937,-5.08203 12.14844,-3.38867 -1.41016,-5.25782 -12.14844,3.38868 -1.0957,-4.09766 9.0918,-2.53516 c -1.4422,-0.64428 -2.66758,-1.15093 -3.72657,-1.54687 1.50902,0.30282 3.01797,0.61046 4.52539,0.92383 -0.10658,0.16358 -0.21373,0.32538 -0.32031,0.48828 l 3.52539,-0.98242 -1.375,-5.13477 c -0.28686,-0.054 -0.57442,-0.10277 -0.86133,-0.15625 z m 136.30078,5.37891 -9.09374,25.0625 7.13671,2.69531 4.99414,-13.76172 4.20313,17.23828 7.1543,2.70117 9.09375,-25.06054 -7.1543,-2.70313 -5.0293,13.86524 -4.21679,-17.35938 z m -164.6875,2.97461 -7.51953,3.15625 3.48829,8.64843 -8.17969,3.43164 -3.48438,-8.64843 -7.48437,3.14258 9.96289,24.71289 7.48437,-3.14063 -4.03125,-9.99805 8.17774,-3.43164 3.74219,9.2793 c 0.19691,-0.42881 0.39234,-0.85997 0.58007,-1.29883 0.64865,-0.9393 1.29181,-1.88078 1.93164,-2.82812 -0.76512,1.52598 -1.5501,3.03529 -2.34765,4.53515 l 0.125,0.3086 7.51758,-3.1543 -4.57032,-11.33789 c -1.90023,-0.46778 -3.67264,-0.8842 -5.1914,-1.18555 -0.34243,-0.40293 -0.71638,-0.80134 -1.11524,-1.19726 0.73463,-1.04686 1.46849,-2.0937 2.21094,-3.13282 0.64237,0.057 1.28472,0.0968 1.92773,0.13672 z m -87.20898,1.15625 c 2.18026,0.0196 4.36353,0.10057 6.54688,0.19922 -0.49172,0.5306 -0.99414,1.05136 -1.4961,1.56835 -1.67667,0.3758 -3.35646,0.73848 -5.03906,1.0879 -0.0265,-0.92914 -0.0306,-1.88042 -0.0117,-2.85547 z m 358.97266,0.5625 c 0.24453,3.6063 0.48769,7.21229 0.73242,10.82031 -1.4569,2.18141 -2.91044,4.47201 -4.35547,6.81055 27.84529,23.70552 51.0485,52.69042 68.06836,85.41992 0.73739,-1.99623 1.47496,-3.99234 2.20898,-5.99024 0.16328,0.082 0.37192,0.18235 0.5293,0.26172 -0.21203,1.82083 -0.44221,3.64135 -0.6875,5.45703 -0.64074,0.17197 -1.28136,0.34169 -1.92187,0.51563 0.13266,0.25549 0.27059,0.50772 0.40234,0.76367 0.47206,-0.13757 0.92401,-0.26608 1.39648,-0.4043 -0.008,0.0533 -0.0159,0.10687 -0.0234,0.16016 -0.23736,0.045 -0.98508,0.1872 -1.36719,0.25977 8.908,17.30277 16.08506,35.64216 21.3164,54.78906 h 16.5254 c -1.24536,-4.82304 -2.59816,-9.60394 -4.07422,-14.33008 -0.85278,0.21959 -1.70631,0.44312 -2.5586,0.66797 -1.31641,-0.56149 -2.63803,-1.10077 -3.97851,-1.57813 -0.87262,-0.31067 1.95611,0.84771 2.22461,1.8711 0.0151,0.0518 0.0163,0.10447 0.0351,0.15625 -0.64906,0.17159 -1.29783,0.3356 -1.94726,0.5039 -1.37968,-1.47983 -3.0456,-3.00081 -5.10352,-4.71679 2.93862,-1.66836 5.67056,-3.75793 8.28516,-6.07032 C 649.34414,287.73229 615.80568,240.97461 572.3418,206.06055 Z m -376.88477,4.92773 h 0.004 c -0.008,0.20961 -0.0101,0.41912 -0.0215,0.62305 -0.0831,0.0147 -0.16685,0.0242 -0.25,0.0391 0.09,-0.22193 0.17763,-0.43988 0.26758,-0.66211 z m 301.1543,2.9375 -12.04492,23.72852 19.60742,10.36328 0.8164,-1.60742 c -0.0665,-0.1629 -0.12765,-0.32768 -0.19531,-0.49024 0.1629,-0.0302 0.3273,-0.0588 0.49024,-0.0898 l 1.61718,-3.18555 -12.40429,-6.55664 2.375,-4.67773 11.18359,5.91015 2.45508,-4.83984 -11.1836,-5.91016 1.91407,-3.77148 12.05664,6.37109 2.57226,-5.0664 z M 256.80078,227.125 c -0.66402,-0.0491 -1.33178,0.0151 -2.0039,0.19531 -1.34427,0.36004 -3.06863,1.22958 -5.17383,2.60742 l -11.35352,7.43165 1.47461,2.34765 c 0.46309,-1.11577 0.94224,-2.22968 1.44336,-3.33984 0.007,0.004 0.0109,0.009 0.0215,0.0137 2.26807,0.31907 4.53308,0.66864 6.79883,1.01367 l 2.95117,-1.92969 c 1.24305,-0.81357 2.21275,-1.17548 2.90821,-1.08203 0.69544,0.0935 1.27198,0.50419 1.72851,1.23047 0.30841,0.49101 0.43562,1.02108 0.38282,1.58984 -0.0427,0.56221 -0.26119,1.0365 -0.6543,1.42383 -0.76358,0.78853 -1.30058,1.2849 -1.61133,1.48828 l -2.87109,1.87891 -2.26368,-3.60156 c -0.0618,0.0463 -0.15333,0.11288 -0.20507,0.15234 -1.42038,1.08389 -2.8527,2.14672 -4.28125,3.2168 -0.73243,0.41681 -1.52091,0.83789 -2.26758,1.2539 l 6.94336,11.04493 c 2.17548,-1.66326 4.36057,-3.3096 6.55664,-4.93555 l -1.81055,-2.87891 0.59961,-0.39453 c 0.62154,-0.40679 1.28626,-0.59665 1.9961,-0.57031 0.52807,0.0302 1.30367,0.33754 2.32421,0.92578 l 0.47852,0.26953 c 1.28341,-0.94152 2.56698,-1.88297 3.85156,-2.82226 -0.87953,1.17131 -1.76943,2.33392 -2.66015,3.49609 l 6.29101,3.55078 7.69922,-5.03906 -7.39258,-4.36719 c -0.36623,-0.22223 -0.97928,-0.47703 -1.83984,-0.76562 -0.85051,-0.29511 -1.45982,-0.4525 -1.82617,-0.47266 -0.54452,-0.0333 -1.3093,0.0768 -2.29493,0.33203 0.86465,-0.89794 1.47563,-1.7165 1.83204,-2.45508 0.55865,-1.15968 0.81409,-2.36018 0.76953,-3.60156 -0.051,-1.25159 -0.46752,-2.50005 -1.25196,-3.74805 -0.9002,-1.43212 -2.00322,-2.42265 -3.30859,-2.96875 -0.65594,-0.27813 -1.31644,-0.44115 -1.98047,-0.49023 z m 265.72461,1.04297 -12.58789,19.10742 c -0.36283,1.23681 -0.72661,2.47337 -1.08789,3.71094 L 524.90625,262 c 0.72548,-0.12359 1.44263,-0.24259 2.18164,-0.37109 l 2.45899,-3.73633 -1.23438,-0.8457 c -2.30253,0.42285 -4.7394,0.84501 -7.63867,1.33007 0.0302,-0.10507 0.0541,-0.20976 0.082,-0.31445 1.16402,-0.86725 1.87142,-1.38044 3.3457,-2.49219 -1.68967,1.36479 -0.63144,0.89394 1.63477,-0.29101 l -7.78321,-5.33985 2.88086,-4.37109 10.14844,6.96094 c 0.22602,-0.11755 0.44377,-0.23094 0.67383,-0.34961 l 2.61133,-3.96485 -5.01367,-3.43945 c -0.0227,0.0227 -0.0507,0.0461 -0.0703,0.0703 -1.6591,0.0442 -3.3213,0.22037 -4.97265,0.52149 0.20636,-0.73905 0.41509,-1.47828 0.62304,-2.2168 0.62635,-0.0469 1.25272,-0.0869 1.87891,-0.11719 l -2.89844,-1.98828 2.32227,-3.52539 3.61523,2.47852 c 1.95459,-0.89204 3.96112,-1.80501 5.95508,-2.78907 z m -266.80469,0.26172 c 0.50725,0.0147 0.99661,0.131 1.45703,0.41406 1.19354,0.73395 0.27439,2.21189 -1.39843,3.84375 -1.46544,-1.07408 -3.28706,-2.00476 -3.98242,-3.39258 1.30916,-0.29688 2.67158,-0.89689 3.92382,-0.86523 z m 283.46485,11.16601 c -2.22565,0.008 -5.15848,0.23021 -9.42969,0.40625 l 7.64844,5.2461 3.12109,-4.73438 z m -308.08203,3.04883 -6.19336,5.28711 10.26172,12.51172 c 0.93248,1.13703 1.34789,2.27881 1.24804,3.42578 -0.002,0.0227 -0.0114,0.0421 -0.0137,0.0644 0.81888,-0.67064 1.62905,-1.35622 2.45508,-2.01367 1.44007,-1.19962 2.89388,-2.37463 4.35351,-3.53906 -0.50451,-1.24883 -1.19437,-2.42525 -2.09179,-3.51953 z m 315.77929,2.78711 -1.24219,1.47656 c 0.3001,0.0465 0.55283,0.13473 0.75,0.27344 -0.28044,-0.0476 -0.57524,-0.0929 -0.86328,-0.13867 l -12.02929,14.29687 c -0.17197,2.59975 0.0426,5.24616 0.35937,7.9043 l 5.08594,4.45508 c 1.09334,0.95796 2.46832,1.84347 4.125,2.6543 1.20986,0.59557 2.58188,0.8684 4.11523,0.81836 1.54114,-0.0593 3.05345,-0.47437 4.53321,-1.24415 1.49658,-0.77109 3.15523,-2.23956 4.97851,-4.40625 1.16383,-1.38304 2.102,-2.83496 2.81641,-4.35546 0.71437,-1.52047 1.10332,-3.0643 1.16406,-4.62891 0.0113,-0.33222 -10e-4,-0.66048 -0.0234,-0.98828 -0.2313,-0.96544 -0.5108,-1.96129 -0.85742,-3.00977 0.0302,-0.0499 0.0635,-0.1044 0.0938,-0.15429 -0.0563,-0.13342 -0.0998,-0.26796 -0.16211,-0.40039 -0.68334,-1.46374 -1.92454,-2.98506 -3.72265,-4.56055 z m -290.10547,6.00781 c -1.78204,2.27316 -3.59249,4.52097 -5.40625,6.76563 l 1.03711,1.64844 6.84375,-4.47852 z m 127.90039,1.10157 c -40.29493,0 -77.64261,12.75065 -108.22851,34.42968 4.30991,0.14778 8.93496,-0.87948 13.19336,-0.53906 0.36434,-0.8033 0.74778,-1.58727 1.1289,-2.375 0.89175,-0.53605 1.54801,-1.53855 2.1504,-2.64062 1.07633,-0.33185 2.14242,-0.66849 3.22265,-0.9961 1.29268,-0.0189 2.57765,-0.083 3.85547,-0.19336 1.18012,1.84762 2.53957,3.6479 3.93164,5.4375 0.19276,0.24794 0.49251,0.57639 0.72461,0.85547 -0.0302,0.18633 -0.0458,0.36435 -0.0723,0.54883 -0.0586,0.0578 -0.12072,0.11291 -0.17968,0.17187 -4.35213,1.38909 -8.71225,2.58887 -13.125,3.61524 -3.51152,-0.96038 -9.91789,-2.27253 -16.61914,-2.58789 -26.83417,19.49699 -48.29825,45.93543 -61.77344,76.65625 h 17.54492 c 11.11522,-22.81144 27.13745,-42.77866 46.70313,-58.53516 -1.52803,0.48163 -3.03365,1.0241 -4.44727,1.61133 0.2143,0.0673 0.44035,0.15129 0.66406,0.23633 -0.26003,0.0945 -0.51773,0.19974 -0.77734,0.29687 -0.20334,-0.0729 -0.40575,-0.14536 -0.5957,-0.22851 0.23453,-0.10144 0.46691,-0.20477 0.70703,-0.30469 -0.15345,-0.0488 -0.28236,-0.0798 -0.42383,-0.11719 1.86867,-0.68734 3.73451,-1.38721 5.60156,-2.08008 29.29096,-23.32675 66.40031,-37.26562 106.8086,-37.26562 h 0.006 c 37.41105,0 71.99558,11.94756 100.16602,32.23047 0.77817,-0.17462 1.02079,-0.22714 1.86914,-0.41797 1.12985,-0.19427 2.26077,-0.38991 3.39063,-0.58399 -1.66436,0.59838 -2.47887,0.89127 -4.44532,1.59766 2.11983,1.5453 4.20351,3.13678 6.24805,4.77539 0.44553,-0.12057 0.89026,-0.24542 1.33594,-0.36523 -0.008,0.20598 -0.0121,0.37001 -0.0234,0.57422 -0.0609,0.22601 -0.12432,0.47104 -0.18555,0.69922 11.76805,9.59572 22.23552,20.72162 31.09961,33.08007 1.36422,-1.05294 2.73357,-2.14887 4.13086,-3.32226 -0.45978,2.32301 -1.0134,4.62677 -1.64258,6.88281 4.58655,6.74871 8.70232,13.84417 12.30469,21.23633 h 17.54297 c -13.65356,-31.13318 -35.50855,-57.8701 -62.8457,-77.43945 -0.0113,1.94142 -0.0377,3.87285 -0.0664,5.7871 -3.35316,0.49973 -7.05912,1.18936 -11.06641,1.9961 1.49386,-1.84577 2.72044,-4.29636 4.30274,-5.97852 1.24649,-1.3251 2.50486,-2.63427 3.75781,-3.95117 C 460.41081,264.65692 423.9464,252.54102 384.6779,252.54102 Z m -166.63085,1.25195 -6.19141,5.28711 10.01953,12.21875 c 0.82548,1.00652 1.96428,1.99936 3.41797,2.97656 0.90243,0.60805 1.98586,1.02001 3.25195,1.23828 1.27521,0.21052 2.47542,0.19458 3.5957,-0.0488 1.11266,-0.25285 2.30095,-0.80162 3.56641,-1.64453 1.27461,-0.85073 2.39969,-1.69278 3.37695,-2.52734 1.68973,-1.44287 2.95213,-2.90639 3.78321,-4.39258 0.28921,-0.5142 0.52026,-1.07892 0.69922,-1.6875 -1.83391,0.19956 -3.48946,0.52539 -5.94532,1.18359 -0.0302,-0.0537 -0.06,-0.10844 -0.0898,-0.1621 2.08231,-0.64842 4.16598,-1.28662 6.25,-1.92774 0.0757,-0.39061 0.13886,-0.79273 0.17578,-1.2168 0.0223,-0.25663 0.0224,-0.5101 0.0254,-0.76367 -2.43861,0.75296 -4.87693,1.50415 -7.31445,2.26172 -0.0939,-0.19578 -0.18511,-0.39284 -0.27344,-0.5918 -0.13032,1.07853 -0.69705,2.06005 -1.72461,2.9375 -1.07773,0.92032 -2.17866,1.32846 -3.30273,1.22657 -1.12254,-0.11906 -2.14138,-0.73711 -3.0586,-1.85547 z m 331.11132,1.61133 1.53321,1.34179 c 1.59001,1.3934 2.39433,2.787 2.41406,4.18164 0.0189,1.39461 -0.87386,3.16617 -2.68164,5.31446 -1.36555,1.62274 -2.50953,2.66383 -3.42969,3.12304 -0.91238,0.44999 -1.76232,0.58432 -2.55273,0.4043 -0.78267,-0.18935 -1.81658,-0.84648 -3.09961,-1.9707 l -1.50391,-1.31641 z m -176.36523,7.71875 c 0.14173,0.23319 0.28838,0.46021 0.42187,0.70312 -0.34053,0.21203 -0.67812,0.42691 -1.01953,0.63867 0.2041,-0.44583 0.4009,-0.89384 0.59766,-1.34179 z m 197.54883,3.60742 -19.27344,18.09375 14.95117,16.58008 4.36719,-4.09766 -9.46094,-10.49023 3.1836,-2.98829 c -0.37682,0.0805 -0.75405,0.15816 -1.13086,0.23829 -0.0227,-0.0113 -0.0414,-0.0237 -0.0645,-0.0312 -0.58545,-0.24718 -1.1331,-0.0265 -1.65429,0.39257 -0.47626,0.10243 -0.95355,0.19723 -1.42969,0.30079 0.12208,-0.3772 0.23673,-0.75992 0.35351,-1.14063 3.22976,-0.90886 6.4639,-1.79472 9.70118,-2.66601 l -1.22852,-1.36329 3.0625,-2.875 2.67187,2.96289 c 1.96585,-0.55521 3.96906,-1.00492 5.76172,-2.0371 z m -364.32422,2.625 c -3.32353,0.14324 -6.46446,1.8496 -9.42188,5.11719 -2.88468,3.1872 -4.26067,6.49898 -4.12695,9.93359 0.1338,3.43461 1.77305,6.63175 4.91406,9.5918 0.87929,0.82862 1.76319,1.53085 2.65235,2.11328 1.19655,-2.29531 2.39087,-4.59275 3.59179,-6.88477 0.1426,-0.0737 0.32304,-0.1756 0.46875,-0.25195 -0.39109,-0.30803 -0.78688,-0.63277 -1.19726,-1.01953 -1.95984,-1.84694 -3.02901,-3.53928 -3.20703,-5.08008 -0.17802,-1.5408 0.28761,-2.92339 1.39453,-4.14648 1.15546,-1.27669 2.48939,-1.89038 4,-1.83985 1.50991,0.034 3.16936,0.90457 4.98047,2.61133 0.004,0.003 0.006,0.008 0.01,0.0117 1.04325,-0.62971 2.08692,-1.25946 3.13086,-1.88867 0.87352,0.19313 1.69235,0.36359 2.30274,0.4707 0.001,3e-4 0.003,-1.9e-4 0.004,0 -0.62737,2.41153 -1.26199,4.81951 -1.90625,7.22461 0.014,0.87919 -0.22019,1.72306 -0.6914,2.5332 -0.39173,1.44276 -0.78027,2.88697 -1.18164,4.32617 -0.40777,1.4617 -0.82722,2.91776 -1.24024,4.37696 -1.66819,0.53045 -3.33589,1.0628 -5.00391,1.59375 1.83685,0.21732 3.57107,0.008 5.20118,-0.63867 2.00826,-0.80387 4.01561,-2.31131 6.01953,-4.52539 1.97161,-2.17837 3.21738,-4.37063 3.73828,-6.57618 0.52025,-2.22274 0.41176,-4.39561 -0.32813,-6.51562 -0.7406,-2.13717 -2.23776,-4.26378 -4.48632,-6.38281 -3.09724,-2.91882 -6.30244,-4.30402 -9.61719,-4.15235 z m 374.91211,9.11523 c -1.09746,1.08556 -2.19507,2.17076 -3.29688,3.25 -0.42561,0.0393 -0.85165,0.0677 -1.27734,0.10547 l 4.55664,5.05274 4.11523,-3.86329 z m -9.76758,3.86524 c -2.03531,0.41888 -4.06717,0.85426 -6.09961,1.28906 l 8.19141,9.08203 3.8125,-3.58203 c -0.0884,0.0385 -0.18733,0.0845 -0.27539,0.12305 0.10847,-0.0763 0.25588,-0.15973 0.38476,-0.24024 z m -385.09961,4.62304 -5.21875,7.39649 4.08594,9.65039 -4.49024,-0.39063 c -0.52193,1.01447 -1.04299,2.02942 -1.5664,3.04297 -0.9067,0.29292 -1.81414,0.58566 -2.72071,0.87891 -0.57177,0.034 -1.14378,0.0834 -1.71679,0.13477 1.57385,-1.32919 3.31519,-2.7069 5.17578,-4.12891 l -4.94727,-0.42969 -5.25,7.44141 18.3125,0.62695 4.34571,3.19336 c 2.11965,-0.68787 4.2434,-1.37454 6.39062,-2.07617 0.1988,0.16516 0.39755,0.32883 0.56641,0.51172 0.29556,-0.28574 0.56973,-0.60873 0.82617,-0.9668 0.39615,-0.12926 0.79773,-0.2593 1.19336,-0.38867 l 0.31836,-0.45117 -5.88477,-4.32227 c -0.37462,0.13795 -0.75051,0.27175 -1.125,0.41016 0.15387,-0.29972 0.30697,-0.59876 0.46094,-0.89844 l -2.35352,-1.72852 z m 12.9668,25.85157 c -1.5781,1.52583 -3.69273,2.06508 -6.01563,2.2539 l 3.61524,2.65625 2.95117,-4.18359 c -0.15904,-0.25663 -0.34189,-0.49983 -0.55078,-0.72656 z m 391.06054,-23.50391 -21.2207,15.66406 7.04883,9.93946 c 0.84465,1.19145 1.97824,2.37831 3.4043,3.56054 1.04069,0.86669 2.31178,1.4577 3.81445,1.77344 1.5123,0.30841 3.0766,0.26404 4.6914,-0.13281 1.63144,-0.39428 3.58002,-1.42769 5.84766,-3.10156 1.44745,-1.06848 2.69259,-2.25748 3.73438,-3.56641 1.04171,-1.30896 1.77133,-2.71745 2.1875,-4.22461 0.41605,-1.50712 0.45466,-3.05847 0.11718,-4.6543 -0.33033,-1.58589 -1.18899,-3.35886 -2.57812,-5.31836 z m -305.79882,2.21094 c 0.44375,-0.0265 0.45662,0.0226 -0.22657,0.18554 -0.75552,0.17575 -1.6038,0.19746 -2.47461,0.17969 1.18266,-0.20031 2.21135,-0.33537 2.70118,-0.36523 z m -15.92383,7.49414 c 1.78152,0.60495 3.56867,1.1791 5.35937,1.72656 -0.60181,0.20107 -3.79417,1.27335 -3.98047,1.33594 -0.88339,0.30387 -4.16739,1.39976 -7.21093,2.41797 1.84501,-1.80325 3.84834,-3.71301 5.83203,-5.48047 z m 321.6582,0.5332 1.18555,1.66797 c 1.22857,1.73299 1.69191,3.27973 1.39258,4.64063 -0.29934,1.36089 -1.57387,2.87162 -3.82227,4.53125 -1.69833,1.25363 -3.04527,1.99471 -4.04492,2.22265 -0.99001,0.22073 -1.84858,0.14995 -2.57617,-0.21289 -0.34545,-0.17801 -0.72556,-0.48254 -1.13477,-0.89844 -0.51167,0.89107 -1.01077,1.79153 -1.53125,2.67579 -0.45426,0.16327 -0.90703,0.32695 -1.36133,0.49023 -0.25323,-2.19935 -0.56388,-4.39071 -0.94531,-6.57422 0.18973,-0.45615 0.3784,-0.92551 0.55664,-1.35547 4.88803,-2.71612 8.63737,-4.80172 8.52734,-4.73437 -0.0937,0.17801 -0.19299,0.35147 -0.2871,0.52929 z m -318.85156,8.14649 c 0.20262,-0.007 0.60119,0.064 1.08008,0.1914 -0.21506,0.079 -0.42937,0.15929 -0.64453,0.23828 0.1217,0.0605 0.23906,0.12766 0.36718,0.1836 -1.89176,0.81702 -3.59499,1.66872 -4.95703,2.46679 -0.82851,0.3549 -1.65487,0.71083 -2.47461,1.07227 -1.27226,0.561 -2.51398,1.12546 -3.73242,1.69141 -0.0684,-0.2177 -0.11915,-0.3912 -0.18945,-0.61328 0.0151,-0.23434 0.0238,-0.47386 0.0352,-0.70899 3.64286,-1.39068 7.29524,-2.74689 10.95118,-4.0918 -0.11037,-0.0556 -0.23125,-0.10277 -0.33594,-0.16211 -0.30892,-0.17707 -0.30223,-0.26091 -0.0996,-0.26757 z m 111.80859,1.06836 c -14.753,0 -29.32676,2.51845 -43.12109,7.36914 -0.45884,1.36161 -0.91574,2.72358 -1.37695,4.08398 -1.23054,0.18747 -2.55022,0.38845 -3.86719,0.60547 0.56152,-1.2243 1.15912,-2.35888 1.75976,-3.39844 -7.33258,2.81643 -14.43109,6.28729 -21.18945,10.41797 l -3.22461,1.9707 3.94141,6.44922 3.22461,-1.9707 c 19.22596,-11.75093 41.32084,-17.96875 63.85351,-17.96875 22.50766,0 44.57934,6.2034 63.79102,17.92969 L 450,336.2168 l 3.9375,-6.45118 -3.22461,-1.96874 c -20.39728,-12.45 -43.8338,-19.03711 -67.73047,-19.03711 z m -188.36328,0.34765 v 0.002 c -0.417,0.10809 -0.97837,0.25927 -1.50195,0.39843 0.0265,-0.0442 0.0468,-0.0906 0.0703,-0.13672 0.48404,-0.0907 0.96853,-0.18619 1.43164,-0.26367 z m 453.57813,9.64063 c 0.56413,0.37228 1.15219,0.73075 1.76171,1.07812 -0.0748,0.1697 -0.13301,0.30388 -0.20898,0.47656 -3.82911,1.10975 -6.48062,1.46174 -4.875,0.21094 0.99443,-0.7748 2.12582,-1.3241 3.32227,-1.76562 z m -408.87696,15.90234 c -0.3939,0.78932 -0.83113,1.5784 -1.32031,2.36719 -1.44904,1.46139 -2.92687,2.84036 -4.40039,4.19336 0.81437,-1.56012 1.65914,-3.06345 2.5293,-4.5293 1.07766,-0.69135 2.1504,-1.36704 3.1914,-2.03125 z M 94.078125,514.73633 c 1.274923,4.96733 2.666109,9.88914 4.185547,14.7539 0.851546,-0.21959 1.703636,-0.44338 2.554688,-0.66796 1.31638,0.56152 2.63803,1.09889 3.97852,1.57617 0.87263,0.31105 -1.95413,-0.84576 -2.22266,-1.86914 -0.014,-0.0518 -0.0203,-0.1041 -0.0332,-0.15625 0.64979,-0.17159 1.29911,-0.33752 1.94921,-0.50586 1.37995,1.4801 3.04322,2.99837 5.10157,4.71484 -2.93904,1.66862 -5.67027,3.7595 -8.28516,6.07227 18.70414,53.69495 52.24267,100.45185 95.70508,135.36523 -0.2442,-3.60465 -0.4859,-7.21051 -0.73047,-10.81641 1.45749,-2.18229 2.91194,-4.47282 4.35742,-6.8125 -27.8455,-23.70565 -51.04851,-52.69008 -68.06836,-85.41992 -0.73773,1.99722 -1.47849,3.99324 -2.21289,5.99219 -0.16327,-0.082 -0.36983,-0.18115 -0.52734,-0.25977 0.21203,-1.82214 0.44006,-3.64212 0.68554,-5.45898 0.64161,-0.17272 1.28444,-0.34395 1.92579,-0.51758 -0.13229,-0.25512 -0.27081,-0.50622 -0.40235,-0.76172 -0.47219,0.13758 -0.92593,0.26608 -1.39844,0.4043 l 0.0234,-0.16016 c 0.23717,-0.045 0.98559,-0.18719 1.36719,-0.25976 -8.97344,-17.42981 -16.18899,-35.91331 -21.42969,-55.21289 z m 118.624995,0 c 13.64034,31.31212 35.56822,58.20208 63.02735,77.85937 0.0151,-1.94067 0.0393,-3.87215 0.0703,-5.78515 3.35278,-0.49977 7.05763,-1.18932 11.06445,-1.9961 -1.49382,1.84574 -2.7184,4.29629 -4.30078,5.97852 -1.24656,1.32514 -2.50658,2.63401 -3.75976,3.95117 30.14022,20.68097 66.60455,32.79688 105.87304,32.79688 40.2934,0 77.63939,-12.75022 108.22461,-34.42774 -4.30904,-0.1474 -8.93223,0.87949 -13.18945,0.53906 -0.36397,0.80255 -0.74819,1.58615 -1.12891,2.37305 -0.89178,0.53582 -1.54601,1.54058 -2.14843,2.64258 -1.07706,0.3326 -2.14374,0.67028 -3.22461,0.99805 -1.29336,0.0189 -2.57892,0.0826 -3.85742,0.19336 -1.18028,-1.84812 -2.53923,-3.64756 -3.93164,-5.4375 -0.19276,-0.24794 -0.4888,-0.57869 -0.72071,-0.85743 0.0302,-0.18633 0.0458,-0.36247 0.0723,-0.54687 0.0582,-0.0571 0.11795,-0.11367 0.17578,-0.17188 4.35205,-1.38916 8.71236,-2.59085 13.125,-3.61718 h 0.002 c 3.51062,0.96011 9.91531,2.27211 16.61524,2.58789 26.95791,-19.58594 48.49501,-46.17913 61.95898,-77.08008 h -17.53125 c -11.12247,22.98415 -27.21657,43.10081 -46.90039,58.95312 1.52595,-0.48117 3.0299,-1.02114 4.44141,-1.60742 -0.21506,-0.0673 -0.4396,-0.15324 -0.66407,-0.23828 0.26004,-0.0949 0.51781,-0.19974 0.77735,-0.29687 0.20371,0.0729 0.40292,0.14807 0.59375,0.23046 1.88814,-0.81535 3.59016,-1.66597 4.95117,-2.46289 0.83184,-0.35603 1.66142,-0.71716 2.48437,-1.08007 1.27234,-0.56096 2.51402,-1.12351 3.73243,-1.68946 0.0688,0.21846 0.11839,0.39382 0.18945,0.61719 -0.0151,0.23433 -0.0163,0.47145 -0.0352,0.70703 -3.64278,1.3906 -7.29722,2.74505 -10.95312,4.08984 0.11074,0.0552 0.23086,0.10278 0.33594,0.16211 0.61806,0.35377 -0.0227,0.33054 -0.98243,0.0762 -1.8678,0.68692 -3.73151,1.38579 -5.59765,2.07812 -29.29229,23.32955 -66.40544,37.26953 -106.81641,37.26953 -37.41089,0 -71.99407,-11.94771 -100.16406,-32.23047 -0.77968,0.175 -1.02296,0.22864 -1.87305,0.41993 -1.12599,0.19388 -2.25287,0.38618 -3.3789,0.58007 1.66053,-0.59701 2.47475,-0.88871 4.4375,-1.59375 -2.12134,-1.54639 -4.20602,-3.13943 -6.25196,-4.77929 -0.44492,0.12056 -0.8889,0.2458 -1.33398,0.36523 0.008,-0.2075 0.0139,-0.37417 0.0215,-0.58008 0.0601,-0.22337 0.12312,-0.46573 0.1836,-0.6914 -11.7676,-9.59554 -22.23383,-20.7219 -31.09766,-33.08008 -1.36439,1.05256 -2.73532,2.14681 -4.13281,3.32031 0.45989,-2.3229 1.01496,-4.62471 1.64453,-6.88086 -4.67385,-6.87729 -8.85881,-14.11362 -12.50977,-21.6582 z m 284.38672,57.46094 c 0.21468,-0.079 0.4294,-0.15929 0.64454,-0.23829 -0.12133,-0.0605 -0.23749,-0.12412 -0.36524,-0.17968 -0.23546,0.10167 -0.46804,0.20257 -0.70898,0.30273 0.15458,0.0491 0.28689,0.0771 0.42968,0.11524 z m 161.65821,-57.46094 c -13.6514,50.2569 -40.72926,94.96507 -77.16993,130.02148 0.81241,-0.144 1.37143,-0.24234 2.1211,-0.375 -2.50685,6.43926 -5.06389,12.91241 -7.6836,19.4375 -1.00274,0.14854 -1.60574,0.23869 -2.46093,0.36719 -0.39307,-1.73461 -1.0135,-3.43099 -1.4043,-5.16602 -1.53441,-0.71523 -3.01104,-1.29336 -4.44727,-1.77343 -14.55753,12.27689 -30.35777,23.12577 -47.20312,32.30859 1.27786,0.53136 2.5563,1.05935 3.83008,1.60156 -2.99169,4.24959 -5.99464,8.48837 -9.00586,12.71875 -1.41048,-1.03653 -3.43697,-2.69324 -5.16406,-4.61914 1.49276,-2.16563 2.97895,-4.3278 4.50781,-6.55859 0.0265,-0.034 0.0548,-0.0652 0.082,-0.0977 -26.38908,13.6083 -55.19082,23.19907 -85.59961,27.97461 2.97094,1.30443 5.86058,2.52044 8.75195,3.66016 0.77878,1.33973 1.68052,2.52983 2.86328,3.37305 0.12322,0.0877 0.26423,0.17283 0.39258,0.25976 -8.59143,2.98859 -17.20453,5.88726 -25.83984,8.69141 0.3292,-1.19074 0.64518,-2.38675 0.93359,-3.59571 0.16744,-0.70238 0.30766,-1.4132 0.43946,-2.125 4.40723,-3.41654 7.99523,-6.68245 12.02148,-10.1914 -14.35162,2.23083 -29.05638,3.39648 -44.03711,3.39648 -0.66353,0 -1.32197,-0.0236 -1.98437,-0.0273 -0.54237,0.26305 -0.7811,0.38033 -1.31836,0.64062 -0.0382,-0.22148 -0.0767,-0.43698 -0.11524,-0.6582 -7.40745,-0.0873 -14.74576,-0.45645 -22.00586,-1.09961 -0.0661,0.034 -0.13307,0.0684 -0.19922,0.10352 -0.52017,-0.0748 -1.02126,-0.16213 -1.50976,-0.25586 -12.40698,-1.17419 -24.58415,-3.1333 -36.47266,-5.84961 -0.0302,0.0264 -0.06,0.052 -0.0898,0.0781 0.008,-0.0302 0.016,-0.062 0.0273,-0.0938 -17.69435,-4.04727 -34.74959,-9.75682 -51.00976,-16.93554 -0.32655,0.33486 -0.64913,0.66703 -0.9668,0.99218 -2.19757,-0.24642 -4.39035,-0.54502 -6.57813,-0.94531 -0.41314,-1.31267 -0.77585,-2.65377 -1.08789,-4.01172 -17.48451,-8.43243 -33.95659,-18.61715 -49.2207,-30.30273 -2.37937,2.29345 -4.3861,4.98666 -4.83984,8.33203 -0.36737,2.70939 0.953,5.07174 2.52929,7.38281 -0.66493,0.30577 -1.32769,0.61854 -1.99218,0.92578 34.57107,25.28508 74.73918,43.35373 118.29687,51.98242 0.12321,-1.02243 0.20193,-2.04338 0.20117,-3.05664 h 0.002 c 1.83326,0.0726 3.66675,0.16144 5.49804,0.26953 0.69907,1.40281 1.39101,2.80797 2.07227,4.21876 11.51758,1.96611 23.25965,3.26756 35.18164,3.88476 h 31.19141 c 12.25799,-0.63367 24.32577,-1.9903 36.15429,-4.05078 0.77503,-0.24907 1.55141,-0.49206 2.32617,-0.74219 -0.0771,0.11943 -0.16596,0.25374 -0.24609,0.37695 21.54221,-3.90977 42.28473,-10.12357 61.96485,-18.375 0.47372,-0.48026 0.87992,-0.94357 1.1621,-1.37304 0.44947,0.0786 0.95802,0.18254 1.42188,0.26758 8.51418,-3.66456 16.82987,-7.70056 24.91602,-12.10938 1.99082,-2.73974 3.98069,-5.47819 5.97265,-8.2168 1.534,0.70167 3.05581,1.43711 4.57813,2.16993 17.93446,-10.74418 34.65051,-23.30921 49.90234,-37.4375 1.3146,-3.72216 2.63495,-7.44133 3.96875,-11.1543 0.94843,0.034 1.89801,0.0659 2.84766,0.10937 -1.42496,2.85646 -2.98173,5.61603 -4.71094,8.2168 -0.55215,0.83044 -1.13336,1.64801 -1.71485,2.46484 41.42169,-38.50642 71.9599,-88.56315 86.45508,-145.02929 z M 535.75977,538.875 c -0.81514,1.56166 -1.66608,3.06423 -2.53711,4.53125 -1.0783,0.69184 -2.14778,1.37244 -3.18946,2.03711 0.39519,-0.79264 0.8348,-1.58687 1.32618,-2.37891 1.44873,-1.46105 2.92754,-2.83721 4.40039,-4.18945 z m -85.69532,2.38281 -3.22461,1.97266 c -19.22672,11.75218 -41.32342,17.96875 -63.85742,17.96875 -22.50791,0 -44.57922,-6.2031 -63.79101,-17.92969 l -3.22657,-1.96875 -3.9375,6.45117 3.22657,1.96875 c 20.39746,12.4503 43.83155,19.03907 67.72851,19.03907 23.92468,0 47.38752,-6.60254 67.80078,-19.08008 l 3.22461,-1.97071 z M 124.15039,558.7832 c 0.88513,-0.0533 1.11237,0.17803 0.32813,0.78907 -0.99447,0.77487 -2.12579,1.32796 -3.32227,1.76953 -0.56425,-0.37266 -1.15021,-0.73071 -1.75977,-1.07813 0.0752,-0.17083 0.13069,-0.30537 0.20704,-0.47851 1.95886,-0.56769 3.61983,-0.94613 4.54687,-1.00196 z m 436.07813,13 -4.93555,6.04297 4.53515,5.39844 c 2.51536,-0.80009 5.03003,-1.60262 7.54493,-2.4043 l -2.66993,-3.37695 c -1.50946,0.48038 -3.01696,0.97044 -4.52734,1.44726 0.0597,-0.20825 0.11802,-0.41727 0.17774,-0.625 1.30295,-0.45671 2.60274,-0.9241 3.90429,-1.38671 z m -347.0254,2.33985 -21.04882,16.46679 0.24804,0.31836 c 0.0519,-0.0227 0.11045,-0.05 0.16211,-0.0723 -0.0403,0.0302 -0.10313,0.0607 -0.14648,0.0898 l 4.8457,6.19531 7.81055,-6.10937 2.78516,3.56055 c 0.26675,0.34091 0.53549,0.66045 0.80468,0.96289 0.28589,-0.0597 0.57193,-0.11846 0.85742,-0.17969 v 0.002 c -0.0873,0.26986 -0.17049,0.54199 -0.2539,0.81446 1.61126,1.62742 3.26392,2.58112 4.95898,2.84179 2.19987,0.34658 4.36129,-0.3126 6.48633,-1.97461 2.06755,-1.61733 3.20143,-3.45244 3.40039,-5.50586 0.20636,-2.04385 -0.61116,-4.24289 -2.45312,-6.59765 z m 293.61133,1.47461 c -1.84433,1.80245 -3.84538,3.712 -5.82812,5.47851 -1.78133,-0.60495 -3.56687,-1.17913 -5.35742,-1.72656 0.60139,-0.20107 3.79429,-1.27534 3.98047,-1.33789 0.8827,-0.3035 4.16501,-1.39714 7.20507,-2.41406 z m 44.07422,7.62109 -4.03515,4.93945 c -0.17878,0.54902 -0.35827,1.09755 -0.53711,1.64649 l 7.82617,11.04297 c 0.70276,-2.69133 1.41841,-5.37807 2.14453,-8.06055 l -0.20117,-0.28516 0.25,0.10938 c 0.42478,-1.56779 0.8452,-3.13567 1.28125,-4.69922 0.14362,-0.51443 0.28988,-1.02749 0.43554,-1.54102 z m 18.64844,0.33594 c -1.26837,2.43481 -2.53467,4.87151 -3.80859,7.30273 -0.86041,0.44534 -1.76981,0.92659 -2.83008,1.52149 -0.9069,0.50883 -2.81614,0.77941 -2.53906,1.91406 0.008,0.034 0.0219,0.064 0.0332,0.0977 l 11.6875,5.12696 5.12109,-6.26758 z m -355.50195,0.44922 1.44726,1.85156 c 0.95093,1.21561 1.36895,2.22373 1.25391,3.02344 -0.1149,0.79974 -0.50164,1.45802 -1.16211,1.97461 -0.67964,0.53178 -1.43827,0.7157 -2.27539,0.55273 -0.82761,-0.17046 -1.73204,-0.88278 -2.71289,-2.13672 l -1.2461,-1.59375 z m 272.71679,4.18945 v 0.002 c 0.32693,-0.0151 0.66995,-0.002 1.00977,0.004 -2.25305,0.3812 -3.90948,0.51169 -2.47266,0.17773 0.4602,-0.10734 0.95258,-0.15978 1.46289,-0.18359 z m -258.53515,4.80469 -19.13477,18.65625 14.76172,15.14062 4.71289,-4.59375 -8.99805,-9.22851 14.42188,-14.0625 z m 316.03515,3.12695 c -0.7912,2.42022 -1.57943,4.84161 -2.37109,7.26172 l 19.16406,9.64258 5.11914,-6.26953 -5.12304,-7.2461 c -1.63057,0.9848 -3.26333,1.96785 -4.89454,2.95117 -0.87356,-0.19351 -1.68839,-0.36171 -2.29882,-0.46875 -0.002,-3.4e-4 -0.004,3.4e-4 -0.008,0 0.0503,-0.19313 0.10208,-0.38525 0.15235,-0.57812 z m -6.79883,3.54102 -0.86523,1.05859 4.11523,2.07031 c -1.05399,-1.10071 -2.13662,-2.14513 -3.25,-3.1289 z m 0.15235,3.65234 c -3.39104,-0.13317 -6.72248,1.30449 -9.99609,4.31445 -2.83786,2.60927 -4.4663,5.41559 -4.89649,8.41797 0.2725,-0.3292 0.54405,-0.65848 0.81641,-0.98828 2.55382,-0.15005 4.34912,-0.41301 6.99218,-1.07031 0.29292,-0.62861 0.72461,-1.21078 1.30469,-1.74414 1.11935,-1.02924 2.33735,-1.5394 3.65039,-1.53321 0.18747,9.1e-4 0.37682,0.0105 0.56836,0.0332 1.5329,0.15874 3.15084,1.16576 4.85352,3.01757 2.02344,2.20071 3.06701,4.05462 3.13281,5.5625 0.0658,1.50792 -0.55325,2.86152 -1.85937,4.0625 -1.27034,1.16795 -2.67642,1.65951 -4.2168,1.47461 -1.53147,-0.19313 -3.21107,-1.28354 -5.03711,-3.26953 -1.13987,-1.23983 -1.93508,-2.3912 -2.39063,-3.45703 -0.0113,0.008 -0.0238,0.0198 -0.0351,0.0273 -2.11888,1.76503 -4.26462,3.48353 -6.42383,5.17578 0.68092,1.28897 1.59021,2.56137 2.74414,3.8164 2.11393,2.29909 4.3266,3.79903 6.63672,4.49805 2.31012,0.6991 4.51421,0.7356 6.61328,0.10937 2.10799,-0.63405 4.27161,-1.97179 6.49023,-4.01171 2.18279,-2.00705 3.63017,-4.08733 4.33985,-6.24219 0.7104,-2.17206 0.77467,-4.34498 0.19531,-6.51953 -0.57891,-2.19175 -1.9251,-4.43724 -4.03906,-6.73633 -2.91127,-3.16633 -6.05864,-4.81221 -9.44141,-4.9375 z m -288.63086,9.7793 c 0.51828,0.53941 1.03994,1.07448 1.56641,1.58789 -0.21619,0.83157 -0.44017,1.66095 -0.65821,2.49218 -4.41179,0.7081 -9.12023,1.51806 -14.08203,2.43165 0.0498,-0.49278 0.0744,-0.9882 0.0957,-1.48438 l -9.23632,11.21289 17.38867,14.32617 3.84765,-4.66992 -3.21093,-2.64648 c -0.0552,0.1954 -0.11103,0.39057 -0.16602,0.58593 -2.70777,0.20334 -5.41557,0.26432 -8.11328,0.004 -1.25499,-0.12094 2.83576,-0.54529 3.76563,-1.69922 0.96601,-0.0265 1.93133,-0.10965 2.89648,-0.22266 l -6.17383,-5.08593 2.3125,-2.80664 c -1.04058,0.54618 -2.06913,1.09305 -3.19336,1.6582 -0.80315,-0.73928 -1.59111,-1.4892 -2.28125,-2.30664 -0.0419,-0.11679 -0.0848,-0.23515 -0.14453,-0.35156 7.5e-4,-0.34167 -0.008,-0.68466 -0.0117,-1.02735 0.22148,-0.24 0.42726,-0.48027 0.61914,-0.72265 3.47814,-0.71226 6.75449,-1.31564 10.43555,-1.95899 l -0.91992,-0.75781 2.70117,-3.27734 10.69141,8.80859 3.6289,-4.40234 z m 148.18555,2.52539 c -0.20372,0.4453 -0.40071,0.89238 -0.59766,1.33984 -0.14098,-0.23244 -0.28876,-0.45909 -0.42188,-0.70117 0.34016,-0.21203 0.67859,-0.42687 1.01954,-0.63867 z m 119.75,2.29297 -6.36524,4.48046 3.2832,4.66407 c 1.67517,-2.12005 3.36709,-4.2261 5.06836,-6.32227 z m -270.8711,5.74609 c -0.41363,0.0507 -2.50604,1.18451 -5.25586,2.64258 l 9.38086,7.73047 3.46485,-4.20704 -7.36329,-6.0664 c -0.33936,0.25361 -0.56591,0.41772 -1.01171,0.7539 0.77719,-0.62781 0.99597,-0.8794 0.78515,-0.85351 z m 275.86524,1.34766 c -2.05879,1.58759 -4.12708,3.15769 -6.20703,4.70703 l 3.35546,4.76953 -6.48437,-2.43945 c -1.98894,1.46573 -3.9832,2.92332 -5.97656,4.38085 1.29743,-1.72784 2.61231,-3.44223 3.93359,-5.15039 l -8.20898,-3.08789 -6.30664,4.4375 15.38085,21.85352 4.65235,-3.27344 c -1.35659,0.40135 -2.70408,0.74954 -3.86719,0.0332 -1.19354,-0.7339 -0.27288,-2.21381 1.40039,-3.8457 1.30054,0.95342 2.87396,1.79627 3.69922,2.94336 l 0.4668,-0.32812 -8.44727,-12.00196 10.91797,4.09571 c 0.27666,-0.20334 0.57437,-0.42092 0.76758,-0.56836 1.41679,-1.08118 2.84653,-2.14157 4.27148,-3.20899 1.40073,-0.79718 2.87537,-1.59681 4.33789,-2.39648 z m -253.59766,2.79882 -4.79883,3.57227 c 0.31522,0.93846 0.66676,1.8655 1.04883,2.7832 -1.93686,0.3738 -3.88237,0.71513 -5.83594,1.01953 0.0302,-0.10204 0.0596,-0.20459 0.0898,-0.30664 l -13.4043,9.97852 7.09961,4.56445 3.47461,-3.01172 7.91211,5.08789 -1.2832,4.41993 7.26953,4.67187 6.00195,-27.91016 z m -0.0352,8.21094 -2.71093,9.67774 -4.95313,-3.1836 z m 262.45118,1.52344 c -0.56727,1.56684 -1.22448,3.11948 -1.9043,4.66992 l 3.47266,-2.44336 z m -45.80078,1.37891 -17.62305,8.25 c -0.43828,0.88648 -0.85994,1.79067 -1.25781,2.7207 -0.0831,0.12057 -0.1649,0.24271 -0.24805,0.36328 l 10.41992,22.25195 20.4043,-9.55469 -2.56641,-5.48046 -12.91016,6.04492 -2.23437,-4.77149 11.63867,-5.44921 -2.31054,-4.9375 -11.63868,5.45117 -1.80078,-3.84766 12.54688,-5.875 z m -197.28516,1.18164 c -1.73465,-0.0741 -3.2318,0.26492 -4.49024,1.01757 -1.24218,0.74691 -2.16257,1.73796 -2.76367,2.97266 -0.91495,1.87945 -0.96814,3.76642 -0.16015,5.66016 0.79721,1.88847 2.64515,3.99129 5.54492,6.30859 1.77588,1.40519 2.81802,2.48646 3.125,3.24414 0.3069,0.75768 0.30942,1.44748 0.008,2.07031 -0.31899,0.65556 -0.88907,1.09369 -1.71289,1.31446 -0.80757,0.21505 -1.74284,0.0646 -2.80273,-0.45118 -1.42046,-0.69154 -2.27497,-1.70985 -2.56641,-3.05468 -0.17726,-0.82972 -0.0637,-1.8544 0.3418,-3.07617 l -7.2793,-2.99805 c -0.97334,2.5268 -1.05573,4.96133 -0.24805,7.30078 0.80746,2.33945 3.25327,4.50272 7.33985,6.49219 2.32743,1.13314 4.4192,1.73828 6.27343,1.8164 1.85953,0.0673 3.53027,-0.34128 5.01563,-1.22656 1.48528,-0.88539 2.60347,-2.09802 3.35351,-3.63867 0.63833,-1.31123 0.89432,-2.65364 0.76563,-4.02735 -0.11792,-1.36849 -0.70965,-2.75002 -1.77344,-4.14648 -1.04753,-1.40209 -3.02294,-3.24434 -5.92773,-5.52344 -1.17819,-0.91158 -1.86519,-1.61059 -2.06055,-2.09765 -0.21165,-0.48148 -0.22539,-0.91251 -0.0391,-1.29493 0.25549,-0.52437 0.69015,-0.86187 1.30273,-1.00976 0.61796,-0.15874 1.3575,-0.0265 2.22071,0.39258 1.049,0.51061 1.7489,1.15655 2.0996,1.93554 0.36171,0.78429 0.37406,1.76145 0.0313,2.9336 l 7.19921,2.99804 c 0.90686,-2.64018 0.82739,-4.92207 -0.23632,-6.8457 -1.04769,-1.92926 -3.10733,-3.64199 -6.17774,-5.13672 -2.50223,-1.21829 -4.62808,-1.86146 -6.37891,-1.92968 z m 234.40625,2.68945 3.88281,1.45703 1.0293,-0.72461 c -1.63812,-0.2366 -3.27512,-0.4835 -4.91211,-0.73242 z m -55.1543,4.57031 -2.00976,0.94141 0.70898,1.51562 c 0.42762,-0.82412 0.86202,-1.64197 1.30078,-2.45703 z m -161.32422,0.64844 -8.875,25.20703 21.25196,7.48242 0.52343,-1.48437 c -1.1119,-0.0302 -2.22347,-0.053 -3.33593,-0.10742 -1.57731,-0.0775 0.88246,-0.12987 3.4375,-0.18165 l 0.55468,-1.57617 c -2.05296,-1.03313 -3.46589,-1.99993 -4.39648,-3.15234 0.30954,-0.24076 0.62014,-0.47987 0.92969,-0.7207 l -9.14844,-3.22071 1.75,-4.96875 12.12109,4.26758 1.81055,-5.14062 -7.39648,-2.60352 c -0.58988,0.42539 -1.18177,0.84561 -1.77149,1.27148 0.0151,-0.58235 0.0304,-1.08578 0.0527,-1.72656 0.002,-0.0488 0.008,-0.0977 0.0117,-0.14648 l -3.01757,-1.0625 1.41211,-4.00586 2.26953,0.79883 c 1.46494,-1.50308 2.93403,-3.00127 4.40234,-4.5 l -0.89258,-0.31446 c -0.91389,0.91522 -1.84463,1.84796 -2.55469,2.56055 0.62639,-0.93003 1.24377,-1.86825 1.86524,-2.80273 z m 158.58985,0.64844 -23.7793,8.03906 2.11328,6.25 7.97852,-2.69531 6.44336,19.06445 7.82422,-2.64453 -3.07032,-9.08399 c -1.44589,-0.0302 -2.89228,-0.0346 -4.33984,-0.0195 0.77835,-1.88575 1.61218,-3.74055 2.4414,-5.59765 l -1.47656,-4.36524 7.97852,-2.69726 -1.20899,-3.58008 c -0.31672,0.46439 -0.63637,0.92648 -0.95117,1.39258 0.2812,-0.56119 0.56835,-1.11755 0.85352,-1.67578 z m -139.50196,6.07226 c -1.88659,1.34672 -3.76847,2.70534 -5.65234,4.0586 l 5.54297,1.95117 1.89648,-5.38086 z m 110.5586,2.91211 -8.80274,1.90039 -4.17578,28.24219 8.25,-1.78125 0.33594,-4.58594 9.19336,-1.98633 2.21484,4.03516 8.44532,-1.82422 z m -96.29297,0.96094 -4.43359,26.35351 6.10546,1.02735 c 0.0113,-0.21128 0.0238,-0.42353 0.0352,-0.63477 0.75024,-1.02625 1.49882,-2.05323 2.24414,-3.08398 2.82765,-0.0491 5.6584,-0.11645 8.48828,-0.21094 0.19881,0.31446 0.39984,0.61775 0.59766,0.9375 -2.57443,1.21312 -5.15728,2.40523 -7.73828,3.60156 l 2.36523,0.39844 c 1.45013,0.24378 3.10828,0.27681 4.97461,0.0977 1.36475,-0.12775 2.70366,-0.61768 4.01758,-1.46875 1.31595,-0.8631 2.42115,-2.014 3.3164,-3.45313 0.90925,-1.44907 1.60042,-3.58208 2.07422,-6.39844 0.30237,-1.79765 0.37428,-3.5344 0.21289,-5.21289 -0.0378,-0.38502 -0.0937,-0.75995 -0.16211,-1.1289 -0.53162,0.95338 -1.07042,1.89945 -1.5957,2.85937 -1.72868,-2.1064 -3.58555,-4.23001 -5.54297,-6.34375 0.61728,-0.87084 1.23719,-1.74153 1.85352,-2.61328 0.49818,0.45562 1.05795,0.8869 1.69922,1.28125 0.71796,0.44168 1.46274,0.80891 2.22265,1.13281 -0.74411,-1.26232 -1.74618,-2.32274 -3.02929,-3.16406 -1.35323,-0.89314 -3.22254,-1.54017 -5.60743,-1.94141 z m 78.42383,2.87305 -7.75196,0.69336 0.15821,1.77148 c 0.55351,0.19427 1.08443,0.3913 1.64648,0.58398 -0.51288,0.23396 -1.01823,0.4877 -1.5293,0.72657 l 1.03907,11.64257 -11.33789,-13.83007 -7.67969,0.68554 2.37695,26.61914 7.73438,-0.6914 -1.30469,-14.61719 11.27344,13.72656 7.7539,-0.69336 z m -42.01563,1.3457 c -3.59535,0.12094 -6.49822,1.20099 -8.70898,3.24023 -2.52658,2.33057 -3.87676,5.67585 -4.05274,10.03516 -0.12586,3.12072 0.38078,5.74515 1.52344,7.87109 1.14259,2.12595 2.67899,3.70741 4.60742,4.7461 0.6844,0.36661 1.44027,0.67327 2.25781,0.92578 -0.85836,-1.63026 -1.77805,-3.29568 -2.8164,-5.0332 0.60079,-0.8196 1.19199,-1.65005 1.77344,-2.49024 0.52686,-0.25814 1.05313,-0.51541 1.58007,-0.77344 -0.53261,-1.19675 -0.76077,-2.81998 -0.67773,-4.87695 0.10998,-2.72001 0.69265,-4.64797 1.74805,-5.78516 1.05539,-1.13707 2.41453,-1.67251 4.07812,-1.60547 1.73643,0.0703 3.08612,0.7096 4.04688,1.91602 0.97345,1.19471 1.40996,3.04896 1.30859,5.5625 -0.12057,2.98715 -0.69101,5.03795 -1.70898,6.15234 -0.34885,0.38181 -0.74435,0.68739 -1.18164,0.92969 0.0404,0.0779 0.0787,0.15885 0.11914,0.23633 1.10989,2.1154 2.21956,3.98548 3.33789,5.67969 0.35943,-0.13796 0.7092,-0.2861 1.04297,-0.45508 2.03652,-1.03676 3.61751,-2.52919 4.74218,-4.47852 1.13726,-1.96093 1.76856,-4.50229 1.89453,-7.62304 0.17348,-4.29857 -0.89485,-7.687 -3.20312,-10.16407 -2.30774,-2.48915 -5.68272,-3.82253 -10.12695,-4.00195 -0.54187,-0.0227 -1.07031,-0.0267 -1.58399,-0.008 z m 56.85742,2.56055 4.91407,8.76562 -5.75586,1.24414 z m -86.12695,0.55859 2.03125,0.3418 c 2.10924,0.35489 3.53211,1.12473 4.26953,2.30859 0.73743,1.18394 0.8721,3.17253 0.40235,5.96484 -0.3549,2.10924 -0.81608,3.60226 -1.38282,4.48047 -0.56473,0.86623 -1.23986,1.4308 -2.02343,1.69336 -0.78157,0.25058 -2.02284,0.2318 -3.72461,-0.0547 l -1.99414,-0.33398 z m 228.09766,2.49023 h 0.004 c -0.0896,0.22186 -0.17643,0.44033 -0.26562,0.66211 0.008,-0.20976 0.0156,-0.41865 0.0156,-0.62304 0.0824,-0.0151 0.1637,-0.0266 0.2461,-0.0391 z m -18.18164,3.29883 c 0.0227,0.93048 0.0306,1.88087 0.0117,2.85742 -2.18015,-0.0189 -4.36172,-0.10448 -6.54493,-0.20312 0.49104,-0.52989 0.99087,-1.04806 1.49219,-1.56445 1.67773,-0.37569 3.35735,-0.74032 5.04102,-1.08985 z m -114.1211,5.82031 c 1.59133,0.7183 2.898,1.25584 4.03711,1.68165 -1.5109,-0.30275 -3.02002,-0.60994 -4.52929,-0.92383 0.16478,-0.25248 0.32766,-0.50512 0.49218,-0.75782 z m -31.94336,0.1211 c 0.57751,0.13115 1.15472,0.26342 1.73242,0.39453 -1.03048,2.10108 -2.05505,4.20632 -3.07617,6.3125 -0.35603,-1.68862 -0.76819,-3.29479 -1.43554,-4.57813 0.82235,-0.69675 1.76517,-1.41189 2.77929,-2.1289 z m 129.62305,10.05664 c 0.034,0.62755 0.0771,1.24093 0.10547,1.78711 -0.35603,-0.15345 -0.71394,-0.30426 -1.07031,-0.45703 0.32239,-0.44285 0.6423,-0.88746 0.96484,-1.33008 z m -295.62109,5.06836 c 0.0994,0.52248 0.19489,1.0465 0.31054,1.56445 -0.38842,-0.18822 -0.77804,-0.37492 -1.16015,-0.58008 0.28346,-0.32844 0.56649,-0.65589 0.84961,-0.98437 z m -1.54688,6.40234 c 1.12048,0.20334 2.24637,0.38799 3.37305,0.57031 0.46401,1.39238 0.96722,2.75368 1.51367,4.06446 -1.70585,-1.4236 -3.34048,-2.96191 -4.88672,-4.63477 z m 29.27734,1.76563 c 0.003,0.0873 0.008,0.16981 0.0117,0.25976 -0.0227,-0.002 -0.0432,-0.003 -0.0625,-0.004 -0.008,-9.5e-4 -0.0217,-0.001 -0.0293,-0.002 -0.0465,-0.003 -0.0941,-0.0157 -0.14063,-0.0195 z m -8.57812,0.83398 0.002,0.002 c 0.0824,0.003 0.16408,0.0138 0.2461,0.0176 -0.0574,0.003 -0.18002,0.0195 -0.23633,0.0195 -0.004,-0.0151 -0.008,-0.0266 -0.0117,-0.0391 z m 8.19141,3.88477 c -0.0726,0.32541 -0.16125,0.64741 -0.25196,0.96875 -0.49406,0.14513 -0.98299,0.28537 -1.4707,0.42578 -1.29082,0.0926 -2.60205,0.20945 -3.93555,0.35156 0.10243,-0.10998 0.20422,-0.22091 0.30664,-0.33203 1.96543,-0.54478 4.04275,-1.10875 5.35157,-1.41406 z m 233.25,5.35742 c 0.36926,0.15194 0.74122,0.29593 1.11328,0.43555 -0.4876,-0.0692 -0.96811,-0.14096 -1.45703,-0.20899 0.11641,-0.0748 0.23112,-0.14984 0.34375,-0.22656 z m -29.48438,1.46094 c 0.72397,0.0658 1.42763,0.13559 2.12109,0.19531 0.0151,0.31332 0.039,0.62632 0.0605,0.93945 -0.11792,0.0442 -0.24057,0.086 -0.35547,0.13477 -0.55192,0.23584 -1.10759,0.45993 -1.66015,0.69336 -0.0552,-0.65413 -0.11046,-1.30862 -0.16602,-1.96289 z m 0.29883,3.47851 c 0.61996,0.0646 1.17639,0.11443 1.80859,0.1836 -0.004,0.003 -0.008,0.002 -0.0117,0.0117 -0.61217,-0.0646 -1.19634,-0.12161 -1.79687,-0.18359 -3.8e-4,-0.002 4e-5,-0.004 0,-0.0117 z m -129.51758,9.4668 c 2.01211,0.40883 4.21609,0.80949 6.14649,1.50976 -0.68353,0.39553 -1.3642,0.7949 -2.04493,1.19727 -1.31236,-0.82072 -2.62759,-1.63606 -3.95507,-2.41211 -0.0476,-0.0998 -0.0996,-0.19552 -0.14649,-0.29492 z m 37.39844,6.14258 c 0.0922,0.034 0.18708,0.0524 0.2793,0.0879 0.95263,0.37077 0.40988,0.48595 -0.76563,0.47461 -0.0151,-0.0953 -0.0342,-0.18796 -0.0527,-0.28321 0.1799,-0.0922 0.35942,-0.18707 0.53906,-0.27929 z m 7.23242,2.5039 c -1.02085,0.68546 -2.04375,1.36943 -3.05859,2.06641 -1.44325,0.92617 -2.89613,1.82834 -4.35352,2.7168 0.0646,-1.19876 0.14607,-2.39332 0.26172,-3.57813 -0.0578,-0.30538 -0.0999,-0.5622 -0.15625,-0.86328 2.43526,-0.11717 4.87111,-0.23446 7.30664,-0.3418 z"
     transform="matrix(0.26458333,0,0,0.26458333,-13.998629,-30.970452)"
     id="path58" />
  <path
     id="path172"
     d="m 62.937724,54.089401 c -0.0845,0 -0.14367,0.0276 -0.17674,0.0827 -0.0294,0.0551 -0.10806,0.36029 -0.23668,0.91518 l -0.50178,2.13321 -2.22156,-0.18759 c -0.49974,-0.0441 -0.7568,-0.0661 -0.77153,-0.0661 -0.18742,0 -0.28112,0.0812 -0.28112,0.24288 0,0.0625 0.0165,0.11007 0.0496,0.14314 0.0367,0.0331 0.30885,0.21147 0.81597,0.53485 l 1.79679,1.15187 -0.83768,2.12752 c -0.20946,0.52549 -0.31419,0.80512 -0.31419,0.83819 0,0.0515 0.0201,0.0991 0.0605,0.14314 0.0441,0.0404 0.0917,0.0605 0.14314,0.0605 0.0441,0 0.0882,-0.0145 0.1323,-0.0439 0.0478,-0.0331 0.31436,-0.25908 0.79943,-0.678 l 1.54358,-1.33376 1.56527,1.35599 c 0.47035,0.40423 0.72942,0.6227 0.77722,0.65577 0.0477,0.0294 0.0938,0.0439 0.13797,0.0439 0.0478,0 0.0919,-0.0201 0.1323,-0.0605 0.0404,-0.0404 0.0605,-0.088 0.0605,-0.14314 0,-0.0588 -0.007,-0.10289 -0.0222,-0.13229 l -1.12965,-2.83342 1.76372,-1.13016 c 0.5255,-0.33441 0.80662,-0.51781 0.84335,-0.55087 0.0367,-0.0368 0.0548,-0.0864 0.0548,-0.14883 0,-0.15802 -0.0917,-0.2372 -0.27543,-0.2372 -0.0147,0 -0.31586,0.024 -0.90382,0.0718 l -2.09496,0.17622 -0.47905,-2.05052 c -0.13964,-0.59899 -0.22433,-0.92822 -0.25373,-0.98702 -0.0294,-0.0625 -0.088,-0.0935 -0.17621,-0.0935 z m 49.691536,0 c -0.0845,0 -0.14367,0.0276 -0.17674,0.0827 -0.0294,0.0551 -0.10806,0.36029 -0.23667,0.91518 l -0.50178,2.13321 -2.22157,-0.18759 c -0.49974,-0.0441 -0.7568,-0.0661 -0.77153,-0.0661 -0.18742,0 -0.28112,0.0812 -0.28112,0.24288 0,0.0625 0.0165,0.11007 0.0496,0.14314 0.0368,0.0331 0.30885,0.21147 0.81597,0.53485 l 1.79679,1.15187 -0.83768,2.12752 c -0.20946,0.52549 -0.31419,0.80512 -0.31419,0.83819 0,0.0515 0.0201,0.0991 0.0605,0.14314 0.0441,0.0404 0.0917,0.0605 0.14315,0.0605 0.0441,0 0.0882,-0.0145 0.13229,-0.0439 0.0478,-0.0331 0.31436,-0.25908 0.79943,-0.678 l 1.54358,-1.33376 1.56527,1.35599 c 0.47034,0.40423 0.72942,0.6227 0.77722,0.65577 0.0478,0.0294 0.0939,0.0439 0.13798,0.0439 0.0478,0 0.0919,-0.0201 0.13229,-0.0605 0.0404,-0.0404 0.0605,-0.088 0.0605,-0.14314 0,-0.0588 -0.007,-0.10289 -0.0222,-0.13229 l -1.12965,-2.83342 1.76372,-1.13016 c 0.5255,-0.33441 0.80662,-0.51781 0.84336,-0.55087 0.0367,-0.0368 0.0548,-0.0864 0.0548,-0.14883 0,-0.15802 -0.0917,-0.2372 -0.27543,-0.2372 -0.0147,0 -0.31586,0.024 -0.90382,0.0718 l -2.09497,0.17622 -0.47904,-2.05052 c -0.13964,-0.59899 -0.22433,-0.92822 -0.25373,-0.98702 -0.0294,-0.0625 -0.088,-0.0935 -0.17621,-0.0935 z"
     style="font-style:normal;font-variant:normal;font-weight:normal;font-stretch:normal;font-size:medium;line-height:1;font-family:'Arial Unicode MS';-inkscape-font-specification:'Arial Unicode MS, Normal';font-variant-ligatures:normal;font-variant-caps:normal;font-variant-numeric:normal;font-feature-settings:normal;text-align:center;writing-mode:lr-tb;text-anchor:middle;fill:#000000;fill-opacity:1;fill-rule:nonzero;stroke:none;stroke-width:2;stroke-linecap:square;stroke-linejoin:miter;stroke-miterlimit:4;stroke-dasharray:none;stroke-opacity:1;paint-order:markers fill stroke" />
  <path
     style="font-style:normal;font-variant:normal;font-weight:normal;font-stretch:normal;font-size:medium;line-height:1;font-family:'Arial Unicode MS';-inkscape-font-specification:'Arial Unicode MS, Normal';font-variant-ligatures:normal;font-variant-caps:normal;font-variant-numeric:normal;font-feature-settings:normal;text-align:center;writing-mode:lr-tb;text-anchor:middle;fill:#000000;fill-opacity:1;fill-rule:nonzero;stroke:none;stroke-width:2;stroke-linecap:square;stroke-linejoin:miter;stroke-miterlimit:4;stroke-dasharray:none;stroke-opacity:1;paint-order:markers fill stroke"
     d="m 62.937724,108.59361 c -0.0845,0 -0.14367,0.0276 -0.17674,0.0827 -0.0294,0.0551 -0.10806,0.36029 -0.23668,0.91518 l -0.50178,2.13321 -2.22156,-0.18759 c -0.49974,-0.0441 -0.7568,-0.0661 -0.77153,-0.0661 -0.18742,0 -0.28112,0.0812 -0.28112,0.24288 0,0.0625 0.0165,0.11007 0.0496,0.14314 0.0367,0.0331 0.30885,0.21147 0.81597,0.53485 l 1.79679,1.15187 -0.83768,2.12752 c -0.20946,0.52549 -0.31419,0.80512 -0.31419,0.83819 0,0.0515 0.0201,0.0991 0.0605,0.14314 0.0441,0.0404 0.0917,0.0605 0.14314,0.0605 0.0441,0 0.0882,-0.0145 0.1323,-0.0439 0.0478,-0.0331 0.31436,-0.25908 0.79943,-0.678 l 1.54358,-1.33376 1.56527,1.35599 c 0.47035,0.40423 0.72942,0.6227 0.77722,0.65577 0.0477,0.0294 0.0938,0.0439 0.13797,0.0439 0.0478,0 0.0919,-0.0201 0.1323,-0.0605 0.0404,-0.0404 0.0605,-0.088 0.0605,-0.14314 0,-0.0588 -0.007,-0.10289 -0.0222,-0.13229 l -1.12965,-2.83342 1.76372,-1.13016 c 0.5255,-0.33441 0.80662,-0.51781 0.84335,-0.55087 0.0367,-0.0368 0.0548,-0.0864 0.0548,-0.14883 0,-0.15802 -0.0917,-0.2372 -0.27543,-0.2372 -0.0147,0 -0.31586,0.024 -0.90382,0.0718 l -2.09496,0.17622 -0.47905,-2.05052 c -0.13964,-0.59899 -0.22433,-0.92822 -0.25373,-0.98702 -0.0294,-0.0625 -0.088,-0.0935 -0.17621,-0.0935 z m 49.691536,0 c -0.0845,0 -0.14367,0.0276 -0.17674,0.0827 -0.0294,0.0551 -0.10806,0.36029 -0.23667,0.91518 l -0.50178,2.13321 -2.22157,-0.18759 c -0.49974,-0.0441 -0.7568,-0.0661 -0.77153,-0.0661 -0.18742,0 -0.28112,0.0812 -0.28112,0.24288 0,0.0625 0.0165,0.11007 0.0496,0.14314 0.0368,0.0331 0.30885,0.21147 0.81597,0.53485 l 1.79679,1.15187 -0.83768,2.12752 c -0.20946,0.52549 -0.31419,0.80512 -0.31419,0.83819 0,0.0515 0.0201,0.0991 0.0605,0.14314 0.0441,0.0404 0.0917,0.0605 0.14315,0.0605 0.0441,0 0.0882,-0.0145 0.13229,-0.0439 0.0478,-0.0331 0.31436,-0.25908 0.79943,-0.678 l 1.54358,-1.33376 1.56527,1.35599 c 0.47034,0.40423 0.72942,0.6227 0.77722,0.65577 0.0478,0.0294 0.0939,0.0439 0.13798,0.0439 0.0478,0 0.0919,-0.0201 0.13229,-0.0605 0.0404,-0.0404 0.0605,-0.088 0.0605,-0.14314 0,-0.0588 -0.007,-0.10289 -0.0222,-0.13229 l -1.12965,-2.83342 1.76372,-1.13016 c 0.5255,-0.33441 0.80662,-0.51781 0.84336,-0.55087 0.0367,-0.0368 0.0548,-0.0864 0.0548,-0.14883 0,-0.15802 -0.0917,-0.2372 -0.27543,-0.2372 -0.0147,0 -0.31586,0.024 -0.90382,0.0718 l -2.09497,0.17622 -0.47904,-2.05052 c -0.13964,-0.59899 -0.22433,-0.92822 -0.25373,-0.98702 -0.0294,-0.0625 -0.088,-0.0935 -0.17621,-0.0935 z"
     id="path538" />
  <path
     style="fill:#000000;fill-opacity:1;fill-rule:nonzero;stroke:none;stroke-width:2;stroke-linecap:square;stroke-linejoin:miter;stroke-miterlimit:4;stroke-dasharray:none;stroke-opacity:1;paint-order:markers fill stroke"
     d="M 1.3229162,65.58231 V 105.2202 H 174.23794 V 65.58231 Z M 49.70911,72.833547 c 4.05561,0 7.180602,1.088946 9.374622,3.266466 2.194028,2.16648 3.290755,5.205924 3.290755,9.118823 0,2.84072 -0.481857,5.17317 -1.445908,6.99699 -0.952939,1.812759 -2.338031,3.227266 -4.1553,4.244184 -1.806191,1.005851 -4.061222,1.508953 -6.764962,1.508953 -2.748071,0 -5.024919,-0.436776 -6.831108,-1.309997 -1.79511,-0.873212 -3.252657,-2.254837 -4.371826,-4.144967 -1.11918,-1.89012 -1.678451,-4.255508 -1.678451,-7.096207 0,-3.968171 1.108165,-7.057478 3.324344,-9.268169 2.21619,-2.210679 5.301943,-3.316076 9.257834,-3.316076 z M 11.712979,73.24799 H 22.89886 c 2.205109,0 3.983713,0.298665 5.335591,0.895554 1.36295,0.596889 2.487485,1.45347 3.373956,2.569869 0.886478,1.116391 1.529135,2.415243 1.928047,3.896402 0.39891,1.481151 0.598414,3.050757 0.598414,4.708758 0,2.59756 -0.299252,4.61437 -0.89762,6.051309 -0.587291,1.42589 -1.40711,2.625529 -2.4598,3.59823 -1.052679,0.961649 -2.183188,1.602857 -3.391006,1.923397 -1.65105,0.44215 -3.146792,0.663008 -4.487582,0.663008 H 11.712979 Z m 54.800274,0 h 7.031093 l 9.175152,13.446726 V 73.24799 h 7.097241 V 97.554517 H 82.719498 L 73.593955,84.207529 v 13.346988 h -7.080702 z m 34.738967,0 h 8.21086 l 9.1581,24.306527 h -7.87807 l -1.19683,-4.012673 h -8.57673 l -1.180295,4.012673 h -7.695652 z m 15.72358,0 h 22.8875 v 6.002219 h -7.6786 v 18.304308 h -7.52978 V 79.250209 h -7.67912 z m 26.32811,0 h 20.17861 v 5.189866 h -12.6323 v 3.862813 h 11.71815 v 4.957321 h -11.71815 v 4.791953 h 12.99817 v 5.504574 h -20.54448 z m -93.611336,5.272548 c -1.518092,0 -2.736906,0.53599 -3.656626,1.608169 -0.91971,1.072182 -1.37976,2.846197 -1.37976,5.322158 0,2.453849 0.454583,4.216913 1.363223,5.289081 0.919721,1.07219 2.166334,1.608172 3.739825,1.608172 1.61781,0 2.86989,-0.525007 3.756361,-1.575099 0.886468,-1.050049 1.329634,-2.93429 1.329634,-5.653402 0,-2.288069 -0.465508,-3.957365 -1.396299,-5.007446 -0.919728,-1.061119 -2.1718,-1.591633 -3.756358,-1.591633 z m -30.450337,0.232027 v 13.280842 h 1.844847 c 1.573479,0 2.692569,-0.17154 3.357419,-0.514181 0.664859,-0.353708 1.185945,-0.96149 1.562693,-1.823659 0.376751,-0.87321 0.564825,-2.282777 0.564825,-4.228166 0,-2.575441 -0.420823,-4.338502 -1.262973,-5.289084 -0.84215,-0.950579 -2.238134,-1.425752 -4.188373,-1.425752 z m 86.031953,0.795816 -2.6758,8.73797 h 5.36866 z"
     id="rect544" />
  <rect
     style="fill:#000000;stroke:#000000;stroke-width:1;stop-color:#000000"
     id="rect40894"
     width="172.91502"
     height="39.63789"
     x="1.3229162"
     y="65.582306" />
  <text
     xml:space="preserve"
     transform="matrix(0.61395101,0,0,0.61395101,-16.489881,-91.294587)"
     id="text44438"
     style="font-size:48px;line-height:25px;font-family:'TeX Gyre Termes';-inkscape-font-specification:'TeX Gyre Termes';letter-spacing:0px;word-spacing:0px;white-space:pre;shape-inside:url(#rect44440)"><tspan
       x="44.269531"
       y="303.48074"
       id="tspan47865"><tspan
         style="font-family:'Roboto Condensed';-inkscape-font-specification:'Roboto Condensed, ';fill:#ffffff"
         id="tspan47863">CONTRIBUTE</tspan></tspan></text>
</svg>
